<svg xmlns="http://www.w3.org/2000/svg" xmlns:xlink="http://www.w3.org/1999/xlink" width="500" zoomAndPan="magnify" viewBox="0 0 375 374.999991" height="500" preserveAspectRatio="xMidYMid meet"><defs><clipPath id="0d0d5651c0"><path d="M 35.613281 51 L 338 51 L 338 324 L 35.613281 324 Z M 35.613281 51 " clip-rule="nonzero"></path></clipPath></defs><g clip-path="url(#0d0d5651c0)"><path fill="#ffffff" d="M 209.140625 320.4375 L 333.980469 195.597656 C 338.449219 191.128906 338.449219 184.148438 333.980469 179.679688 L 209.140625 54.839844 C 204.671875 50.371094 197.691406 50.371094 193.222656 54.839844 C 188.753906 59.308594 188.753906 66.289062 193.222656 70.757812 L 299.070312 176.605469 L -259.210938 176.605469 C -265.355469 176.605469 -270.382812 181.632812 -270.382812 187.777344 C -270.382812 193.921875 -265.355469 198.949219 -259.210938 198.949219 L 299.070312 198.949219 L 193.222656 304.515625 C 190.988281 306.75 189.871094 309.542969 189.871094 312.335938 C 189.871094 315.128906 190.988281 317.921875 193.222656 320.15625 C 197.691406 324.625 204.671875 324.625 209.140625 320.4375 Z M 209.140625 320.4375 " fill-opacity="1" fill-rule="nonzero"></path></g></svg>