<svg xmlns="http://www.w3.org/2000/svg" xmlns:xlink="http://www.w3.org/1999/xlink" width="500" zoomAndPan="magnify" viewBox="0 0 375 374.999991" height="500" preserveAspectRatio="xMidYMid meet"><defs><clipPath id="5b5cfeb62f"><path d="M 0 59 L 322 59 L 322 375 L 0 375 Z M 0 59 " clip-rule="nonzero"></path></clipPath><clipPath id="4464caffb1"><path d="M -10.324219 135.167969 L 259.6875 -3.960938 L 385.417969 240.050781 L 115.40625 379.179688 Z M -10.324219 135.167969 " clip-rule="nonzero"></path></clipPath><clipPath id="20fec77242"><path d="M -283.160156 275.753906 L 259.53125 -3.878906 L 385.261719 240.128906 L -157.429688 519.765625 Z M -283.160156 275.753906 " clip-rule="nonzero"></path></clipPath></defs><g clip-path="url(#5b5cfeb62f)"><g clip-path="url(#4464caffb1)"><g clip-path="url(#20fec77242)"><path fill="#ffffff" d="M 267.628906 295.753906 L 321.421875 127.601562 C 323.34375 121.582031 320.148438 115.375 314.128906 113.449219 L 145.972656 59.660156 C 139.957031 57.734375 133.75 60.933594 131.824219 66.949219 C 129.898438 72.96875 133.097656 79.175781 139.113281 81.101562 L 281.6875 126.710938 L -214.585938 382.429688 C -220.046875 385.242188 -222.214844 392.011719 -219.398438 397.476562 C -216.585938 402.9375 -209.8125 405.101562 -204.351562 402.289062 L 291.921875 146.570312 L 246.1875 288.894531 C 245.222656 291.90625 245.511719 294.898438 246.789062 297.382812 C 248.070312 299.863281 250.339844 301.835938 253.351562 302.796875 C 259.367188 304.722656 265.574219 301.527344 267.628906 295.753906 Z M 267.628906 295.753906 " fill-opacity="1" fill-rule="nonzero"></path></g></g></g></svg>