<svg xmlns="http://www.w3.org/2000/svg" xmlns:xlink="http://www.w3.org/1999/xlink" width="500" zoomAndPan="magnify" viewBox="0 0 375 374.999991" height="500" preserveAspectRatio="xMidYMid meet"><defs><clipPath id="a544f5b903"><path d="M 26.003906 26.003906 L 168 26.003906 L 168 168 L 26.003906 168 Z M 26.003906 26.003906 " clip-rule="nonzero"></path></clipPath><clipPath id="780930db4c"><path d="M 205 26.003906 L 349 26.003906 L 349 168 L 205 168 Z M 205 26.003906 " clip-rule="nonzero"></path></clipPath><clipPath id="a319f79f4e"><path d="M 26.003906 205 L 168 205 L 168 349 L 26.003906 349 Z M 26.003906 205 " clip-rule="nonzero"></path></clipPath></defs><g clip-path="url(#a544f5b903)"><path fill="#ffffff" d="M 66.566406 25.25 L 126.65625 25.25 C 128.007812 25.25 129.359375 25.316406 130.707031 25.449219 C 132.050781 25.582031 133.390625 25.78125 134.714844 26.046875 C 136.042969 26.308594 137.355469 26.636719 138.648438 27.03125 C 139.945312 27.421875 141.214844 27.878906 142.464844 28.398438 C 143.714844 28.914062 144.9375 29.492188 146.132812 30.128906 C 147.324219 30.769531 148.484375 31.460938 149.609375 32.214844 C 150.734375 32.964844 151.820312 33.769531 152.863281 34.628906 C 153.910156 35.488281 154.914062 36.394531 155.867188 37.351562 C 156.824219 38.308594 157.734375 39.308594 158.589844 40.355469 C 159.449219 41.402344 160.253906 42.488281 161.007812 43.613281 C 161.757812 44.738281 162.453125 45.898438 163.089844 47.089844 C 163.730469 48.285156 164.308594 49.503906 164.824219 50.753906 C 165.34375 52.003906 165.796875 53.277344 166.191406 54.570312 C 166.582031 55.867188 166.910156 57.179688 167.175781 58.503906 C 167.4375 59.832031 167.636719 61.167969 167.769531 62.515625 C 167.902344 63.863281 167.96875 65.210938 167.96875 66.566406 L 167.96875 126.65625 C 167.96875 128.007812 167.902344 129.359375 167.769531 130.707031 C 167.636719 132.050781 167.4375 133.390625 167.175781 134.714844 C 166.910156 136.042969 166.582031 137.355469 166.191406 138.648438 C 165.796875 139.945312 165.34375 141.214844 164.824219 142.464844 C 164.308594 143.714844 163.730469 144.9375 163.089844 146.132812 C 162.453125 147.324219 161.757812 148.484375 161.007812 149.609375 C 160.253906 150.734375 159.449219 151.820312 158.589844 152.863281 C 157.734375 153.910156 156.824219 154.914062 155.867188 155.867188 C 154.914062 156.824219 153.910156 157.734375 152.863281 158.589844 C 151.820312 159.449219 150.734375 160.253906 149.609375 161.007812 C 148.484375 161.757812 147.324219 162.453125 146.132812 163.089844 C 144.9375 163.730469 143.714844 164.308594 142.464844 164.824219 C 141.214844 165.34375 139.945312 165.796875 138.648438 166.191406 C 137.355469 166.582031 136.042969 166.910156 134.714844 167.175781 C 133.390625 167.4375 132.050781 167.636719 130.707031 167.769531 C 129.359375 167.902344 128.007812 167.96875 126.65625 167.96875 L 66.566406 167.96875 C 65.210938 167.96875 63.863281 167.902344 62.515625 167.769531 C 61.167969 167.636719 59.832031 167.4375 58.503906 167.175781 C 57.179688 166.910156 55.867188 166.582031 54.570312 166.191406 C 53.277344 165.796875 52.003906 165.34375 50.753906 164.824219 C 49.503906 164.308594 48.285156 163.730469 47.089844 163.089844 C 45.898438 162.453125 44.738281 161.757812 43.613281 161.007812 C 42.488281 160.253906 41.402344 159.449219 40.355469 158.589844 C 39.308594 157.734375 38.308594 156.824219 37.351562 155.867188 C 36.394531 154.914062 35.488281 153.910156 34.628906 152.863281 C 33.769531 151.820312 32.964844 150.734375 32.214844 149.609375 C 31.460938 148.484375 30.769531 147.324219 30.128906 146.132812 C 29.492188 144.9375 28.914062 143.714844 28.398438 142.464844 C 27.878906 141.214844 27.421875 139.945312 27.03125 138.648438 C 26.636719 137.355469 26.308594 136.042969 26.046875 134.714844 C 25.78125 133.390625 25.582031 132.050781 25.449219 130.707031 C 25.316406 129.359375 25.25 128.007812 25.25 126.65625 L 25.25 66.566406 C 25.25 65.210938 25.316406 63.863281 25.449219 62.515625 C 25.582031 61.167969 25.78125 59.832031 26.046875 58.503906 C 26.308594 57.179688 26.636719 55.867188 27.03125 54.570312 C 27.421875 53.277344 27.878906 52.003906 28.398438 50.753906 C 28.914062 49.503906 29.492188 48.285156 30.128906 47.089844 C 30.769531 45.898438 31.460938 44.738281 32.214844 43.613281 C 32.964844 42.488281 33.769531 41.402344 34.628906 40.355469 C 35.488281 39.308594 36.394531 38.308594 37.351562 37.351562 C 38.308594 36.394531 39.308594 35.488281 40.355469 34.628906 C 41.402344 33.769531 42.488281 32.964844 43.613281 32.214844 C 44.738281 31.460938 45.898438 30.769531 47.089844 30.128906 C 48.285156 29.492188 49.503906 28.914062 50.753906 28.398438 C 52.003906 27.878906 53.277344 27.421875 54.570312 27.03125 C 55.867188 26.636719 57.179688 26.308594 58.503906 26.046875 C 59.832031 25.78125 61.167969 25.582031 62.515625 25.449219 C 63.863281 25.316406 65.210938 25.25 66.566406 25.25 Z M 66.566406 25.25 " fill-opacity="1" fill-rule="nonzero"></path></g><g clip-path="url(#780930db4c)"><path fill="#ffffff" d="M 246.839844 25.25 L 306.929688 25.25 C 308.285156 25.25 309.632812 25.316406 310.980469 25.449219 C 312.328125 25.582031 313.664062 25.78125 314.992188 26.046875 C 316.316406 26.308594 317.628906 26.636719 318.921875 27.03125 C 320.21875 27.421875 321.492188 27.878906 322.742188 28.398438 C 323.992188 28.914062 325.210938 29.492188 326.40625 30.128906 C 327.597656 30.769531 328.757812 31.460938 329.882812 32.214844 C 331.007812 32.964844 332.09375 33.769531 333.140625 34.628906 C 334.1875 35.488281 335.1875 36.394531 336.144531 37.351562 C 337.101562 38.308594 338.007812 39.308594 338.867188 40.355469 C 339.726562 41.402344 340.53125 42.488281 341.28125 43.613281 C 342.03125 44.738281 342.726562 45.898438 343.367188 47.089844 C 344.003906 48.285156 344.582031 49.503906 345.097656 50.753906 C 345.617188 52.003906 346.070312 53.277344 346.464844 54.570312 C 346.859375 55.867188 347.1875 57.179688 347.449219 58.503906 C 347.714844 59.832031 347.914062 61.167969 348.046875 62.515625 C 348.175781 63.863281 348.242188 65.210938 348.242188 66.566406 L 348.242188 126.65625 C 348.242188 128.007812 348.175781 129.359375 348.046875 130.707031 C 347.914062 132.050781 347.714844 133.390625 347.449219 134.714844 C 347.1875 136.042969 346.859375 137.355469 346.464844 138.648438 C 346.070312 139.945312 345.617188 141.214844 345.097656 142.464844 C 344.582031 143.714844 344.003906 144.9375 343.367188 146.132812 C 342.726562 147.324219 342.03125 148.484375 341.28125 149.609375 C 340.53125 150.734375 339.726562 151.820312 338.867188 152.863281 C 338.007812 153.910156 337.101562 154.914062 336.144531 155.867188 C 335.1875 156.824219 334.1875 157.734375 333.140625 158.589844 C 332.09375 159.449219 331.007812 160.253906 329.882812 161.007812 C 328.757812 161.757812 327.597656 162.453125 326.40625 163.089844 C 325.210938 163.730469 323.992188 164.308594 322.742188 164.824219 C 321.492188 165.34375 320.21875 165.796875 318.921875 166.191406 C 317.628906 166.582031 316.316406 166.910156 314.992188 167.175781 C 313.664062 167.4375 312.328125 167.636719 310.980469 167.769531 C 309.632812 167.902344 308.285156 167.96875 306.929688 167.96875 L 246.839844 167.96875 C 245.488281 167.96875 244.136719 167.902344 242.789062 167.769531 C 241.445312 167.636719 240.105469 167.4375 238.78125 167.175781 C 237.453125 166.910156 236.140625 166.582031 234.847656 166.191406 C 233.550781 165.796875 232.28125 165.34375 231.03125 164.824219 C 229.78125 164.308594 228.558594 163.730469 227.363281 163.089844 C 226.171875 162.453125 225.011719 161.757812 223.886719 161.007812 C 222.761719 160.253906 221.675781 159.449219 220.628906 158.589844 C 219.585938 157.734375 218.582031 156.824219 217.625 155.867188 C 216.671875 154.914062 215.761719 153.910156 214.902344 152.863281 C 214.046875 151.820312 213.242188 150.734375 212.488281 149.609375 C 211.738281 148.484375 211.042969 147.324219 210.40625 146.132812 C 209.765625 144.9375 209.1875 143.714844 208.671875 142.464844 C 208.152344 141.214844 207.699219 139.945312 207.304688 138.648438 C 206.914062 137.355469 206.585938 136.042969 206.320312 134.714844 C 206.054688 133.390625 205.859375 132.050781 205.726562 130.707031 C 205.59375 129.359375 205.527344 128.007812 205.527344 126.65625 L 205.527344 66.566406 C 205.527344 65.210938 205.59375 63.863281 205.726562 62.515625 C 205.859375 61.167969 206.054688 59.832031 206.320312 58.503906 C 206.585938 57.179688 206.914062 55.867188 207.304688 54.570312 C 207.699219 53.277344 208.152344 52.003906 208.671875 50.753906 C 209.1875 49.503906 209.765625 48.285156 210.40625 47.089844 C 211.042969 45.898438 211.738281 44.738281 212.488281 43.613281 C 213.242188 42.488281 214.046875 41.402344 214.902344 40.355469 C 215.761719 39.308594 216.671875 38.308594 217.625 37.351562 C 218.582031 36.394531 219.585938 35.488281 220.628906 34.628906 C 221.675781 33.769531 222.761719 32.964844 223.886719 32.214844 C 225.011719 31.460938 226.171875 30.769531 227.363281 30.128906 C 228.558594 29.492188 229.78125 28.914062 231.03125 28.398438 C 232.28125 27.878906 233.550781 27.421875 234.847656 27.03125 C 236.140625 26.636719 237.453125 26.308594 238.78125 26.046875 C 240.105469 25.78125 241.445312 25.582031 242.789062 25.449219 C 244.136719 25.316406 245.488281 25.25 246.839844 25.25 Z M 246.839844 25.25 " fill-opacity="1" fill-rule="nonzero"></path></g><g clip-path="url(#a319f79f4e)"><path fill="#ffffff" d="M 66.566406 205.527344 L 126.65625 205.527344 C 128.007812 205.527344 129.359375 205.59375 130.707031 205.726562 C 132.050781 205.859375 133.390625 206.054688 134.714844 206.320312 C 136.042969 206.585938 137.355469 206.914062 138.648438 207.304688 C 139.945312 207.699219 141.214844 208.152344 142.464844 208.671875 C 143.714844 209.1875 144.9375 209.765625 146.132812 210.40625 C 147.324219 211.042969 148.484375 211.738281 149.609375 212.488281 C 150.734375 213.242188 151.820312 214.046875 152.863281 214.902344 C 153.910156 215.761719 154.914062 216.671875 155.867188 217.625 C 156.824219 218.582031 157.734375 219.585938 158.589844 220.628906 C 159.449219 221.675781 160.253906 222.761719 161.007812 223.886719 C 161.757812 225.011719 162.453125 226.171875 163.089844 227.363281 C 163.730469 228.558594 164.308594 229.78125 164.824219 231.03125 C 165.34375 232.28125 165.796875 233.550781 166.191406 234.847656 C 166.582031 236.140625 166.910156 237.453125 167.175781 238.78125 C 167.4375 240.105469 167.636719 241.445312 167.769531 242.789062 C 167.902344 244.136719 167.96875 245.488281 167.96875 246.839844 L 167.96875 306.929688 C 167.96875 308.285156 167.902344 309.632812 167.769531 310.980469 C 167.636719 312.328125 167.4375 313.664062 167.175781 314.992188 C 166.910156 316.316406 166.582031 317.628906 166.191406 318.921875 C 165.796875 320.21875 165.34375 321.492188 164.824219 322.742188 C 164.308594 323.992188 163.730469 325.210938 163.089844 326.40625 C 162.453125 327.597656 161.757812 328.757812 161.007812 329.882812 C 160.253906 331.007812 159.449219 332.09375 158.589844 333.140625 C 157.734375 334.1875 156.824219 335.1875 155.867188 336.144531 C 154.914062 337.101562 153.910156 338.007812 152.863281 338.867188 C 151.820312 339.726562 150.734375 340.53125 149.609375 341.28125 C 148.484375 342.03125 147.324219 342.726562 146.132812 343.367188 C 144.9375 344.003906 143.714844 344.582031 142.464844 345.097656 C 141.214844 345.617188 139.945312 346.070312 138.648438 346.464844 C 137.355469 346.859375 136.042969 347.1875 134.714844 347.449219 C 133.390625 347.714844 132.050781 347.914062 130.707031 348.046875 C 129.359375 348.175781 128.007812 348.242188 126.65625 348.242188 L 66.566406 348.242188 C 65.210938 348.242188 63.863281 348.175781 62.515625 348.046875 C 61.167969 347.914062 59.832031 347.714844 58.503906 347.449219 C 57.179688 347.1875 55.867188 346.859375 54.570312 346.464844 C 53.277344 346.070312 52.003906 345.617188 50.753906 345.097656 C 49.503906 344.582031 48.285156 344.003906 47.089844 343.367188 C 45.898438 342.726562 44.738281 342.03125 43.613281 341.28125 C 42.488281 340.53125 41.402344 339.726562 40.355469 338.867188 C 39.308594 338.007812 38.308594 337.101562 37.351562 336.144531 C 36.394531 335.1875 35.488281 334.1875 34.628906 333.140625 C 33.769531 332.09375 32.964844 331.007812 32.214844 329.882812 C 31.460938 328.757812 30.769531 327.597656 30.128906 326.40625 C 29.492188 325.210938 28.914062 323.992188 28.398438 322.742188 C 27.878906 321.492188 27.421875 320.21875 27.03125 318.921875 C 26.636719 317.628906 26.308594 316.316406 26.046875 314.992188 C 25.78125 313.664062 25.582031 312.328125 25.449219 310.980469 C 25.316406 309.632812 25.25 308.285156 25.25 306.929688 L 25.25 246.839844 C 25.25 245.488281 25.316406 244.136719 25.449219 242.789062 C 25.582031 241.445312 25.78125 240.105469 26.046875 238.78125 C 26.308594 237.453125 26.636719 236.140625 27.03125 234.847656 C 27.421875 233.550781 27.878906 232.28125 28.398438 231.03125 C 28.914062 229.78125 29.492188 228.558594 30.128906 227.363281 C 30.769531 226.171875 31.460938 225.011719 32.214844 223.886719 C 32.964844 222.761719 33.769531 221.675781 34.628906 220.628906 C 35.488281 219.585938 36.394531 218.582031 37.351562 217.625 C 38.308594 216.671875 39.308594 215.761719 40.355469 214.902344 C 41.402344 214.046875 42.488281 213.242188 43.613281 212.488281 C 44.738281 211.738281 45.898438 211.042969 47.089844 210.40625 C 48.285156 209.765625 49.503906 209.1875 50.753906 208.671875 C 52.003906 208.152344 53.277344 207.699219 54.570312 207.304688 C 55.867188 206.914062 57.179688 206.585938 58.503906 206.320312 C 59.832031 206.054688 61.167969 205.859375 62.515625 205.726562 C 63.863281 205.59375 65.210938 205.527344 66.566406 205.527344 Z M 66.566406 205.527344 " fill-opacity="1" fill-rule="nonzero"></path></g><path fill="#ffffff" d="M 246.839844 205.527344 L 306.929688 205.527344 C 308.285156 205.527344 309.632812 205.59375 310.980469 205.726562 C 312.328125 205.859375 313.664062 206.054688 314.992188 206.320312 C 316.316406 206.585938 317.628906 206.914062 318.921875 207.304688 C 320.21875 207.699219 321.492188 208.152344 322.742188 208.671875 C 323.992188 209.1875 325.210938 209.765625 326.40625 210.40625 C 327.597656 211.042969 328.757812 211.738281 329.882812 212.488281 C 331.007812 213.242188 332.09375 214.046875 333.140625 214.902344 C 334.1875 215.761719 335.1875 216.671875 336.144531 217.625 C 337.101562 218.582031 338.007812 219.585938 338.867188 220.628906 C 339.726562 221.675781 340.53125 222.761719 341.28125 223.886719 C 342.03125 225.011719 342.726562 226.171875 343.367188 227.363281 C 344.003906 228.558594 344.582031 229.78125 345.097656 231.03125 C 345.617188 232.28125 346.070312 233.550781 346.464844 234.847656 C 346.859375 236.140625 347.1875 237.453125 347.449219 238.78125 C 347.714844 240.105469 347.914062 241.445312 348.046875 242.789062 C 348.175781 244.136719 348.242188 245.488281 348.242188 246.839844 L 348.242188 306.929688 C 348.242188 308.285156 348.175781 309.632812 348.046875 310.980469 C 347.914062 312.328125 347.714844 313.664062 347.449219 314.992188 C 347.1875 316.316406 346.859375 317.628906 346.464844 318.921875 C 346.070312 320.21875 345.617188 321.492188 345.097656 322.742188 C 344.582031 323.992188 344.003906 325.210938 343.367188 326.40625 C 342.726562 327.597656 342.03125 328.757812 341.28125 329.882812 C 340.53125 331.007812 339.726562 332.09375 338.867188 333.140625 C 338.007812 334.1875 337.101562 335.1875 336.144531 336.144531 C 335.1875 337.101562 334.1875 338.007812 333.140625 338.867188 C 332.09375 339.726562 331.007812 340.53125 329.882812 341.28125 C 328.757812 342.03125 327.597656 342.726562 326.40625 343.367188 C 325.210938 344.003906 323.992188 344.582031 322.742188 345.097656 C 321.492188 345.617188 320.21875 346.070312 318.921875 346.464844 C 317.628906 346.859375 316.316406 347.1875 314.992188 347.449219 C 313.664062 347.714844 312.328125 347.914062 310.980469 348.046875 C 309.632812 348.175781 308.285156 348.242188 306.929688 348.242188 L 246.839844 348.242188 C 245.488281 348.242188 244.136719 348.175781 242.789062 348.046875 C 241.445312 347.914062 240.105469 347.714844 238.78125 347.449219 C 237.453125 347.1875 236.140625 346.859375 234.847656 346.464844 C 233.550781 346.070312 232.28125 345.617188 231.03125 345.097656 C 229.78125 344.582031 228.558594 344.003906 227.363281 343.367188 C 226.171875 342.726562 225.011719 342.03125 223.886719 341.28125 C 222.761719 340.53125 221.675781 339.726562 220.628906 338.867188 C 219.585938 338.007812 218.582031 337.101562 217.625 336.144531 C 216.671875 335.1875 215.761719 334.1875 214.902344 333.140625 C 214.046875 332.09375 213.242188 331.007812 212.488281 329.882812 C 211.738281 328.757812 211.042969 327.597656 210.40625 326.40625 C 209.765625 325.210938 209.1875 323.992188 208.671875 322.742188 C 208.152344 321.492188 207.699219 320.21875 207.304688 318.921875 C 206.914062 317.628906 206.585938 316.316406 206.320312 314.992188 C 206.054688 313.664062 205.859375 312.328125 205.726562 310.980469 C 205.59375 309.632812 205.527344 308.285156 205.527344 306.929688 L 205.527344 246.839844 C 205.527344 245.488281 205.59375 244.136719 205.726562 242.789062 C 205.859375 241.445312 206.054688 240.105469 206.320312 238.78125 C 206.585938 237.453125 206.914062 236.140625 207.304688 234.847656 C 207.699219 233.550781 208.152344 232.28125 208.671875 231.03125 C 209.1875 229.78125 209.765625 228.558594 210.40625 227.363281 C 211.042969 226.171875 211.738281 225.011719 212.488281 223.886719 C 213.242188 222.761719 214.046875 221.675781 214.902344 220.628906 C 215.761719 219.585938 216.671875 218.582031 217.625 217.625 C 218.582031 216.671875 219.585938 215.761719 220.628906 214.902344 C 221.675781 214.046875 222.761719 213.242188 223.886719 212.488281 C 225.011719 211.738281 226.171875 211.042969 227.363281 210.40625 C 228.558594 209.765625 229.78125 209.1875 231.03125 208.671875 C 232.28125 208.152344 233.550781 207.699219 234.847656 207.304688 C 236.140625 206.914062 237.453125 206.585938 238.78125 206.320312 C 240.105469 206.054688 241.445312 205.859375 242.789062 205.726562 C 244.136719 205.59375 245.488281 205.527344 246.839844 205.527344 Z M 246.839844 205.527344 " fill-opacity="1" fill-rule="nonzero"></path></svg>