<svg xmlns="http://www.w3.org/2000/svg" id="uuid-5a3948e2-5f62-4ca4-948f-193455f83ca6" data-name="Livello 2" viewBox="0 0 382.53 441.41"><g id="uuid-020b1692-1402-4c03-8185-4572e65722d6" data-name="Livello 1"><polygon points="382.53 330.96 362.82 319.9 362.82 133.19 191.27 232.23 19.71 133.19 19.71 319.9 0 330.96 0 99.05 191.27 209.48 382.53 99.05 382.53 330.96"></polygon><polygon points="327.46 101.39 191.27 22.76 55.07 101.39 35.11 90.16 191.27 0 346.54 89.65 327.46 101.39"></polygon><rect x="182.39" y="271.53" width="17.33" height="159.53" transform="translate(-.91 .5) rotate(-.15)"></rect><polygon points="186.49 286.6 63.31 214.93 63.31 194.87 195.21 271.62 186.49 286.6"></polygon><polygon points="190.99 441.41 63.31 367.07 63.31 347.02 190.99 421.71 190.99 441.41"></polygon><polygon points="186.49 362.8 63.31 291.13 63.31 271.07 195.21 347.82 186.49 362.8"></polygon><path d="M190.99,441.41l-4.77-18.36,99.93-57.53c14.67-8.45,23.79-24.21,23.79-41.14v-79.26c0-4.54-2.24-8.46-6.15-10.77-3.9-2.31-8.42-2.38-12.4-.19l-95.94,52.84-8.95-16.25,95.94-52.84c9.72-5.35,21.23-5.18,30.78.47,9.55,5.65,15.26,15.64,15.26,26.74v79.26c0,23.54-12.68,45.47-33.08,57.22l-104.42,59.82Z"></path></g></svg>