<svg xmlns="http://www.w3.org/2000/svg" xmlns:xlink="http://www.w3.org/1999/xlink" width="500" zoomAndPan="magnify" viewBox="0 0 375 374.999991" height="500" preserveAspectRatio="xMidYMid meet"><defs><clipPath id="cc061847ee"><path d="M 33 33 L 342 33 L 342 341.914062 L 33 341.914062 Z M 33 33 " clip-rule="nonzero"></path></clipPath></defs><g clip-path="url(#cc061847ee)"><path fill="#ffffff" d="M 340.292969 333.246094 C 342.300781 335.257812 342.300781 338.515625 340.292969 340.527344 C 339.285156 341.53125 337.96875 342.035156 336.652344 342.035156 C 335.335938 342.035156 334.015625 341.53125 333.011719 340.527344 L 187.480469 194.996094 L 41.945312 340.527344 C 40.941406 341.53125 39.625 342.035156 38.304688 342.035156 C 36.988281 342.035156 35.671875 341.53125 34.667969 340.527344 C 32.65625 338.515625 32.65625 335.257812 34.667969 333.246094 L 180.199219 187.714844 L 34.667969 42.179688 C 32.65625 40.171875 32.65625 36.910156 34.667969 34.902344 C 36.675781 32.890625 39.9375 32.890625 41.945312 34.902344 L 187.480469 180.433594 L 333.011719 34.902344 C 335.023438 32.890625 338.28125 32.890625 340.292969 34.902344 C 342.300781 36.910156 342.300781 40.171875 340.292969 42.179688 L 194.761719 187.714844 Z M 340.292969 333.246094 " fill-opacity="1" fill-rule="nonzero"></path></g></svg>