<svg xmlns="http://www.w3.org/2000/svg" xmlns:xlink="http://www.w3.org/1999/xlink" width="500" zoomAndPan="magnify" viewBox="0 0 375 374.999991" height="500" preserveAspectRatio="xMidYMid meet"><defs><clipPath id="1b6e903ab6"><path d="M 61 65 L 375 65 L 375 375 L 61 375 Z M 61 65 " clip-rule="nonzero"></path></clipPath><clipPath id="d4b21b14bb"><path d="M 236.476562 386.175781 L -15.125 215.996094 L 138.664062 -11.375 L 390.265625 158.800781 Z M 236.476562 386.175781 " clip-rule="nonzero"></path></clipPath><clipPath id="89b82835b6"><path d="M 490.707031 558.132812 L -14.980469 216.09375 L 138.8125 -11.277344 L 644.5 330.761719 Z M 490.707031 558.132812 " clip-rule="nonzero"></path></clipPath></defs><g clip-path="url(#1b6e903ab6)"><g clip-path="url(#d4b21b14bb)"><g clip-path="url(#89b82835b6)"><path fill="#ffffff" d="M 244.046875 65.257812 L 70.699219 98.71875 C 64.492188 99.917969 60.582031 105.699219 61.777344 111.90625 L 95.242188 285.253906 C 96.441406 291.457031 102.222656 295.371094 108.429688 294.171875 C 114.632812 292.976562 118.546875 287.191406 117.347656 280.988281 L 88.976562 134.007812 L 551.410156 446.792969 C 556.5 450.234375 563.480469 448.886719 566.921875 443.796875 C 570.363281 438.707031 569.015625 431.726562 563.925781 428.285156 L 101.492188 115.503906 L 248.3125 87.359375 C 251.414062 86.761719 253.90625 85.074219 255.46875 82.761719 C 257.035156 80.449219 257.675781 77.507812 257.074219 74.40625 C 255.878906 68.203125 250.09375 64.289062 244.046875 65.257812 Z M 244.046875 65.257812 " fill-opacity="1" fill-rule="nonzero"></path></g></g></g></svg>