<svg xmlns="http://www.w3.org/2000/svg" xmlns:xlink="http://www.w3.org/1999/xlink" width="500" zoomAndPan="magnify" viewBox="0 0 375 374.999991" height="500" preserveAspectRatio="xMidYMid meet"><defs><clipPath id="c98bd6008c"><path d="M 18.75 18.75 L 356.25 18.75 L 356.25 356.25 L 18.75 356.25 Z M 18.75 18.75 " clip-rule="nonzero"></path></clipPath></defs><g clip-path="url(#c98bd6008c)"><path fill="#ffffff" d="M 210.46875 356.234375 L 164.53125 356.234375 C 163.996094 356.234375 163.457031 356.207031 162.921875 356.152344 C 162.386719 356.101562 161.859375 356.019531 161.332031 355.914062 C 160.804688 355.808594 160.28125 355.679688 159.769531 355.523438 C 159.253906 355.367188 158.75 355.183594 158.253906 354.980469 C 157.757812 354.773438 157.269531 354.542969 156.796875 354.289062 C 156.324219 354.035156 155.863281 353.761719 155.417969 353.460938 C 154.96875 353.164062 154.539062 352.84375 154.125 352.5 C 153.707031 352.160156 153.308594 351.800781 152.929688 351.417969 C 152.550781 351.039062 152.191406 350.640625 151.847656 350.226562 C 151.507812 349.8125 151.1875 349.378906 150.890625 348.933594 C 150.589844 348.484375 150.316406 348.023438 150.0625 347.550781 C 149.808594 347.078125 149.578125 346.59375 149.375 346.09375 C 149.167969 345.597656 148.988281 345.09375 148.832031 344.578125 C 148.675781 344.066406 148.542969 343.542969 148.4375 343.015625 C 148.332031 342.492188 148.253906 341.960938 148.203125 341.425781 C 148.148438 340.890625 148.121094 340.351562 148.121094 339.816406 L 148.121094 307.765625 C 141.996094 305.757812 136.0625 303.292969 130.316406 300.371094 L 107.640625 323.089844 C 107.261719 323.46875 106.863281 323.828125 106.449219 324.167969 C 106.03125 324.507812 105.601562 324.828125 105.152344 325.128906 C 104.707031 325.425781 104.246094 325.703125 103.773438 325.953125 C 103.296875 326.207031 102.8125 326.4375 102.316406 326.644531 C 101.820312 326.847656 101.3125 327.027344 100.800781 327.183594 C 100.285156 327.339844 99.765625 327.472656 99.238281 327.574219 C 98.710938 327.679688 98.179688 327.757812 97.644531 327.8125 C 97.109375 327.863281 96.574219 327.890625 96.035156 327.890625 C 95.496094 327.890625 94.960938 327.863281 94.425781 327.8125 C 93.890625 327.757812 93.359375 327.679688 92.832031 327.574219 C 92.304688 327.472656 91.785156 327.339844 91.269531 327.183594 C 90.757812 327.027344 90.25 326.847656 89.753906 326.644531 C 89.257812 326.4375 88.773438 326.207031 88.296875 325.953125 C 87.824219 325.703125 87.363281 325.425781 86.917969 325.128906 C 86.46875 324.828125 86.039062 324.507812 85.621094 324.167969 C 85.207031 323.828125 84.808594 323.46875 84.429688 323.089844 L 51.910156 290.570312 C 51.53125 290.191406 51.171875 289.792969 50.832031 289.378906 C 50.492188 288.960938 50.171875 288.53125 49.871094 288.082031 C 49.574219 287.636719 49.296875 287.175781 49.046875 286.703125 C 48.792969 286.226562 48.5625 285.742188 48.355469 285.246094 C 48.152344 284.75 47.972656 284.242188 47.816406 283.730469 C 47.660156 283.214844 47.527344 282.695312 47.425781 282.167969 C 47.320312 281.640625 47.242188 281.109375 47.1875 280.574219 C 47.136719 280.039062 47.109375 279.503906 47.109375 278.964844 C 47.109375 278.425781 47.136719 277.890625 47.1875 277.355469 C 47.242188 276.820312 47.320312 276.289062 47.425781 275.761719 C 47.527344 275.234375 47.660156 274.714844 47.816406 274.199219 C 47.972656 273.6875 48.152344 273.179688 48.355469 272.683594 C 48.5625 272.1875 48.792969 271.703125 49.046875 271.226562 C 49.296875 270.753906 49.574219 270.292969 49.871094 269.847656 C 50.171875 269.398438 50.492188 268.96875 50.832031 268.550781 C 51.171875 268.136719 51.53125 267.738281 51.910156 267.359375 L 74.628906 244.675781 C 71.722656 238.929688 69.269531 232.992188 67.277344 226.871094 L 35.175781 226.871094 C 34.636719 226.867188 34.101562 226.84375 33.566406 226.789062 C 33.035156 226.734375 32.503906 226.65625 31.976562 226.550781 C 31.449219 226.445312 30.929688 226.316406 30.414062 226.160156 C 29.898438 226.003906 29.394531 225.820312 28.898438 225.617188 C 28.402344 225.410156 27.917969 225.179688 27.445312 224.925781 C 26.96875 224.671875 26.507812 224.398438 26.0625 224.097656 C 25.617188 223.800781 25.183594 223.480469 24.769531 223.140625 C 24.355469 222.800781 23.957031 222.4375 23.578125 222.058594 C 23.199219 221.679688 22.835938 221.28125 22.496094 220.867188 C 22.15625 220.449219 21.835938 220.019531 21.535156 219.574219 C 21.238281 219.125 20.960938 218.664062 20.707031 218.191406 C 20.457031 217.71875 20.226562 217.234375 20.019531 216.738281 C 19.8125 216.242188 19.632812 215.734375 19.476562 215.222656 C 19.320312 214.707031 19.191406 214.1875 19.085938 213.660156 C 18.980469 213.132812 18.898438 212.601562 18.847656 212.066406 C 18.792969 211.535156 18.765625 210.996094 18.765625 210.460938 L 18.765625 164.53125 C 18.765625 163.996094 18.792969 163.457031 18.847656 162.921875 C 18.898438 162.390625 18.980469 161.859375 19.085938 161.332031 C 19.191406 160.804688 19.320312 160.285156 19.476562 159.769531 C 19.632812 159.257812 19.8125 158.75 20.019531 158.253906 C 20.226562 157.757812 20.457031 157.273438 20.707031 156.800781 C 20.960938 156.324219 21.238281 155.867188 21.535156 155.417969 C 21.835938 154.972656 22.15625 154.542969 22.496094 154.125 C 22.835938 153.710938 23.199219 153.3125 23.578125 152.933594 C 23.957031 152.554688 24.355469 152.191406 24.769531 151.851562 C 25.183594 151.511719 25.617188 151.191406 26.0625 150.894531 C 26.507812 150.59375 26.96875 150.316406 27.445312 150.066406 C 27.917969 149.8125 28.402344 149.582031 28.898438 149.375 C 29.394531 149.167969 29.898438 148.988281 30.414062 148.832031 C 30.929688 148.675781 31.449219 148.546875 31.976562 148.441406 C 32.503906 148.335938 33.035156 148.257812 33.566406 148.203125 C 34.101562 148.148438 34.636719 148.121094 35.175781 148.121094 L 67.234375 148.121094 C 69.230469 142 71.679688 136.0625 74.585938 130.316406 L 51.910156 107.640625 C 51.53125 107.261719 51.171875 106.863281 50.832031 106.449219 C 50.492188 106.03125 50.171875 105.601562 49.871094 105.152344 C 49.574219 104.707031 49.296875 104.246094 49.046875 103.773438 C 48.792969 103.296875 48.5625 102.8125 48.355469 102.316406 C 48.152344 101.820312 47.972656 101.3125 47.816406 100.800781 C 47.660156 100.285156 47.527344 99.765625 47.425781 99.238281 C 47.320312 98.710938 47.242188 98.179688 47.1875 97.644531 C 47.136719 97.109375 47.109375 96.574219 47.109375 96.035156 C 47.109375 95.496094 47.136719 94.960938 47.1875 94.425781 C 47.242188 93.890625 47.320312 93.359375 47.425781 92.832031 C 47.527344 92.304688 47.660156 91.785156 47.816406 91.269531 C 47.972656 90.757812 48.152344 90.25 48.355469 89.753906 C 48.5625 89.257812 48.792969 88.773438 49.046875 88.296875 C 49.296875 87.824219 49.574219 87.363281 49.871094 86.917969 C 50.171875 86.46875 50.492188 86.039062 50.832031 85.621094 C 51.171875 85.207031 51.53125 84.808594 51.910156 84.429688 L 84.429688 51.910156 C 84.808594 51.53125 85.207031 51.171875 85.621094 50.832031 C 86.039062 50.492188 86.46875 50.171875 86.917969 49.871094 C 87.363281 49.574219 87.824219 49.296875 88.296875 49.046875 C 88.773438 48.792969 89.257812 48.5625 89.753906 48.355469 C 90.25 48.152344 90.757812 47.972656 91.269531 47.816406 C 91.785156 47.660156 92.304688 47.527344 92.832031 47.425781 C 93.359375 47.320312 93.890625 47.242188 94.425781 47.1875 C 94.960938 47.136719 95.496094 47.109375 96.035156 47.109375 C 96.574219 47.109375 97.109375 47.136719 97.644531 47.1875 C 98.179688 47.242188 98.710938 47.320312 99.238281 47.425781 C 99.765625 47.527344 100.285156 47.660156 100.800781 47.816406 C 101.3125 47.972656 101.820312 48.152344 102.316406 48.355469 C 102.8125 48.5625 103.296875 48.792969 103.773438 49.046875 C 104.246094 49.296875 104.707031 49.574219 105.152344 49.871094 C 105.601562 50.171875 106.03125 50.492188 106.449219 50.832031 C 106.863281 51.171875 107.261719 51.53125 107.640625 51.910156 L 130.324219 74.628906 C 136.070312 71.722656 142.007812 69.269531 148.128906 67.277344 L 148.128906 35.175781 C 148.132812 34.636719 148.15625 34.101562 148.210938 33.566406 C 148.265625 33.035156 148.34375 32.503906 148.449219 31.976562 C 148.554688 31.449219 148.683594 30.929688 148.839844 30.414062 C 148.996094 29.898438 149.179688 29.394531 149.382812 28.898438 C 149.589844 28.402344 149.820312 27.917969 150.074219 27.445312 C 150.328125 26.96875 150.601562 26.507812 150.902344 26.0625 C 151.199219 25.617188 151.519531 25.183594 151.859375 24.769531 C 152.199219 24.355469 152.5625 23.957031 152.941406 23.578125 C 153.320312 23.199219 153.71875 22.835938 154.132812 22.496094 C 154.550781 22.15625 154.980469 21.835938 155.425781 21.535156 C 155.875 21.238281 156.332031 20.960938 156.808594 20.707031 C 157.28125 20.457031 157.765625 20.226562 158.261719 20.019531 C 158.757812 19.8125 159.265625 19.632812 159.777344 19.476562 C 160.292969 19.320312 160.8125 19.191406 161.339844 19.085938 C 161.867188 18.980469 162.398438 18.898438 162.933594 18.847656 C 163.464844 18.792969 164.003906 18.765625 164.539062 18.765625 L 210.476562 18.765625 C 211.015625 18.765625 211.550781 18.792969 212.085938 18.847656 C 212.617188 18.898438 213.148438 18.980469 213.675781 19.085938 C 214.203125 19.191406 214.722656 19.320312 215.238281 19.476562 C 215.753906 19.632812 216.257812 19.8125 216.753906 20.019531 C 217.25 20.226562 217.734375 20.457031 218.207031 20.707031 C 218.683594 20.960938 219.140625 21.238281 219.589844 21.535156 C 220.035156 21.835938 220.464844 22.15625 220.882812 22.496094 C 221.296875 22.835938 221.695312 23.199219 222.074219 23.578125 C 222.453125 23.957031 222.816406 24.355469 223.15625 24.769531 C 223.496094 25.183594 223.816406 25.617188 224.117188 26.0625 C 224.414062 26.507812 224.691406 26.96875 224.945312 27.445312 C 225.195312 27.917969 225.425781 28.402344 225.632812 28.898438 C 225.839844 29.394531 226.019531 29.898438 226.175781 30.414062 C 226.332031 30.929688 226.460938 31.449219 226.566406 31.976562 C 226.671875 32.503906 226.753906 33.035156 226.804688 33.566406 C 226.859375 34.101562 226.886719 34.636719 226.886719 35.175781 L 226.886719 67.234375 C 233.007812 69.230469 238.945312 71.679688 244.691406 74.585938 L 267.359375 51.910156 C 267.738281 51.53125 268.136719 51.171875 268.550781 50.832031 C 268.96875 50.492188 269.398438 50.171875 269.847656 49.871094 C 270.292969 49.574219 270.753906 49.296875 271.226562 49.046875 C 271.703125 48.792969 272.1875 48.5625 272.683594 48.355469 C 273.179688 48.152344 273.6875 47.972656 274.199219 47.816406 C 274.714844 47.660156 275.234375 47.527344 275.761719 47.425781 C 276.289062 47.320312 276.820312 47.242188 277.355469 47.1875 C 277.890625 47.136719 278.425781 47.109375 278.964844 47.109375 C 279.503906 47.109375 280.039062 47.136719 280.574219 47.1875 C 281.109375 47.242188 281.640625 47.320312 282.167969 47.425781 C 282.695312 47.527344 283.214844 47.660156 283.730469 47.816406 C 284.242188 47.972656 284.75 48.152344 285.246094 48.355469 C 285.742188 48.5625 286.226562 48.792969 286.703125 49.046875 C 287.175781 49.296875 287.636719 49.574219 288.082031 49.871094 C 288.53125 50.171875 288.960938 50.492188 289.378906 50.832031 C 289.792969 51.171875 290.191406 51.53125 290.570312 51.910156 L 323.089844 84.429688 C 323.46875 84.808594 323.828125 85.207031 324.167969 85.625 C 324.507812 86.039062 324.828125 86.46875 325.125 86.917969 C 325.421875 87.363281 325.699219 87.824219 325.949219 88.300781 C 326.203125 88.773438 326.433594 89.257812 326.636719 89.757812 C 326.84375 90.253906 327.023438 90.757812 327.179688 91.273438 C 327.335938 91.785156 327.464844 92.308594 327.570312 92.835938 C 327.675781 93.363281 327.753906 93.890625 327.804688 94.425781 C 327.859375 94.960938 327.882812 95.496094 327.882812 96.035156 C 327.882812 96.574219 327.859375 97.109375 327.804688 97.644531 C 327.753906 98.179688 327.675781 98.710938 327.570312 99.234375 C 327.464844 99.761719 327.335938 100.285156 327.179688 100.796875 C 327.023438 101.3125 326.84375 101.816406 326.636719 102.316406 C 326.433594 102.8125 326.203125 103.296875 325.949219 103.769531 C 325.699219 104.246094 325.421875 104.707031 325.125 105.152344 C 324.828125 105.601562 324.507812 106.03125 324.167969 106.445312 C 323.828125 106.863281 323.46875 107.261719 323.089844 107.640625 L 300.371094 130.324219 C 303.292969 136.070312 305.757812 142.003906 307.765625 148.128906 L 339.816406 148.128906 C 340.351562 148.128906 340.890625 148.15625 341.425781 148.210938 C 341.960938 148.261719 342.492188 148.34375 343.015625 148.445312 C 343.542969 148.550781 344.066406 148.683594 344.578125 148.839844 C 345.09375 148.996094 345.597656 149.175781 346.09375 149.382812 C 346.59375 149.585938 347.078125 149.816406 347.550781 150.070312 C 348.023438 150.324219 348.484375 150.597656 348.933594 150.898438 C 349.378906 151.195312 349.8125 151.515625 350.226562 151.855469 C 350.640625 152.199219 351.039062 152.558594 351.417969 152.9375 C 351.800781 153.320312 352.160156 153.714844 352.5 154.132812 C 352.84375 154.546875 353.164062 154.976562 353.460938 155.425781 C 353.761719 155.871094 354.035156 156.332031 354.289062 156.804688 C 354.542969 157.28125 354.773438 157.765625 354.980469 158.261719 C 355.183594 158.757812 355.367188 159.261719 355.523438 159.777344 C 355.679688 160.289062 355.808594 160.8125 355.914062 161.339844 C 356.019531 161.867188 356.101562 162.398438 356.152344 162.929688 C 356.207031 163.464844 356.234375 164.003906 356.234375 164.539062 L 356.234375 210.476562 C 356.234375 211.015625 356.207031 211.550781 356.152344 212.085938 C 356.101562 212.621094 356.019531 213.152344 355.914062 213.675781 C 355.808594 214.203125 355.679688 214.726562 355.523438 215.238281 C 355.367188 215.753906 355.183594 216.257812 354.980469 216.753906 C 354.773438 217.25 354.542969 217.738281 354.289062 218.210938 C 354.035156 218.683594 353.761719 219.144531 353.460938 219.589844 C 353.164062 220.039062 352.84375 220.46875 352.5 220.886719 C 352.160156 221.300781 351.800781 221.699219 351.417969 222.078125 C 351.039062 222.457031 350.640625 222.816406 350.226562 223.160156 C 349.8125 223.5 349.378906 223.820312 348.933594 224.117188 C 348.484375 224.417969 348.023438 224.691406 347.550781 224.945312 C 347.078125 225.199219 346.59375 225.429688 346.09375 225.632812 C 345.597656 225.839844 345.09375 226.019531 344.578125 226.175781 C 344.066406 226.332031 343.542969 226.464844 343.015625 226.570312 C 342.492188 226.675781 341.960938 226.753906 341.425781 226.804688 C 340.890625 226.859375 340.351562 226.886719 339.816406 226.886719 L 307.765625 226.886719 C 305.757812 233.011719 303.292969 238.945312 300.371094 244.691406 L 323.089844 267.359375 C 323.46875 267.738281 323.828125 268.136719 324.167969 268.550781 C 324.507812 268.96875 324.828125 269.398438 325.125 269.847656 C 325.421875 270.292969 325.699219 270.753906 325.949219 271.230469 C 326.203125 271.703125 326.433594 272.1875 326.636719 272.683594 C 326.84375 273.183594 327.023438 273.6875 327.179688 274.203125 C 327.335938 274.714844 327.464844 275.238281 327.570312 275.765625 C 327.675781 276.289062 327.753906 276.820312 327.804688 277.355469 C 327.859375 277.890625 327.882812 278.425781 327.882812 278.964844 C 327.882812 279.503906 327.859375 280.039062 327.804688 280.574219 C 327.753906 281.109375 327.675781 281.636719 327.570312 282.164062 C 327.464844 282.691406 327.335938 283.214844 327.179688 283.726562 C 327.023438 284.242188 326.84375 284.746094 326.636719 285.242188 C 326.433594 285.742188 326.203125 286.226562 325.949219 286.699219 C 325.699219 287.175781 325.421875 287.636719 325.125 288.082031 C 324.828125 288.527344 324.507812 288.960938 324.167969 289.375 C 323.828125 289.792969 323.46875 290.191406 323.089844 290.570312 L 290.570312 323.089844 C 290.191406 323.46875 289.792969 323.828125 289.378906 324.167969 C 288.960938 324.507812 288.53125 324.828125 288.082031 325.128906 C 287.636719 325.425781 287.175781 325.703125 286.703125 325.953125 C 286.226562 326.207031 285.742188 326.4375 285.246094 326.644531 C 284.75 326.847656 284.242188 327.027344 283.730469 327.183594 C 283.214844 327.339844 282.695312 327.472656 282.167969 327.574219 C 281.640625 327.679688 281.109375 327.757812 280.574219 327.8125 C 280.039062 327.863281 279.503906 327.890625 278.964844 327.890625 C 278.425781 327.890625 277.890625 327.863281 277.355469 327.8125 C 276.820312 327.757812 276.289062 327.679688 275.761719 327.574219 C 275.234375 327.472656 274.714844 327.339844 274.199219 327.183594 C 273.6875 327.027344 273.179688 326.847656 272.683594 326.644531 C 272.1875 326.4375 271.703125 326.207031 271.226562 325.953125 C 270.753906 325.703125 270.292969 325.425781 269.847656 325.128906 C 269.398438 324.828125 268.96875 324.507812 268.550781 324.167969 C 268.136719 323.828125 267.738281 323.46875 267.359375 323.089844 L 244.675781 300.371094 C 238.929688 303.292969 232.996094 305.757812 226.871094 307.765625 L 226.871094 339.824219 C 226.867188 340.359375 226.84375 340.898438 226.789062 341.429688 C 226.734375 341.964844 226.65625 342.496094 226.550781 343.023438 C 226.445312 343.550781 226.316406 344.070312 226.160156 344.585938 C 226.003906 345.097656 225.824219 345.601562 225.617188 346.097656 C 225.410156 346.59375 225.179688 347.082031 224.929688 347.554688 C 224.675781 348.027344 224.398438 348.488281 224.101562 348.933594 C 223.800781 349.382812 223.484375 349.8125 223.140625 350.226562 C 222.800781 350.640625 222.441406 351.039062 222.0625 351.417969 C 221.683594 351.800781 221.285156 352.160156 220.871094 352.5 C 220.453125 352.84375 220.023438 353.160156 219.578125 353.460938 C 219.128906 353.757812 218.671875 354.035156 218.195312 354.289062 C 217.722656 354.542969 217.238281 354.773438 216.742188 354.976562 C 216.246094 355.183594 215.742188 355.363281 215.226562 355.519531 C 214.714844 355.679688 214.195312 355.808594 213.667969 355.914062 C 213.140625 356.019531 212.609375 356.097656 212.074219 356.152344 C 211.542969 356.207031 211.003906 356.234375 210.46875 356.234375 Z M 128.835938 282.132812 C 130.296875 282.125 131.65625 282.484375 132.921875 283.210938 C 140.988281 287.832031 149.503906 291.371094 158.472656 293.832031 C 159.335938 294.066406 160.140625 294.433594 160.882812 294.933594 C 161.625 295.433594 162.269531 296.039062 162.8125 296.753906 C 163.359375 297.464844 163.773438 298.246094 164.0625 299.09375 C 164.347656 299.945312 164.492188 300.816406 164.492188 301.710938 L 164.492188 339.839844 C 164.484375 339.894531 164.507812 339.921875 164.5625 339.921875 L 210.5 339.921875 C 210.550781 339.921875 210.574219 339.898438 210.574219 339.847656 L 210.574219 301.6875 C 210.574219 300.792969 210.71875 299.917969 211.003906 299.070312 C 211.292969 298.222656 211.707031 297.441406 212.25 296.730469 C 212.796875 296.015625 213.4375 295.410156 214.183594 294.910156 C 214.925781 294.410156 215.730469 294.042969 216.59375 293.804688 C 225.558594 291.351562 234.070312 287.808594 242.136719 283.1875 C 242.910156 282.746094 243.738281 282.441406 244.613281 282.269531 C 245.492188 282.101562 246.371094 282.074219 247.257812 282.191406 C 248.144531 282.3125 248.984375 282.570312 249.785156 282.964844 C 250.585938 283.359375 251.304688 283.871094 251.9375 284.503906 L 278.890625 311.457031 C 278.929688 311.496094 278.96875 311.496094 279.003906 311.457031 L 311.480469 278.980469 C 311.519531 278.941406 311.519531 278.90625 311.480469 278.867188 L 284.527344 251.914062 C 283.898438 251.28125 283.382812 250.5625 282.988281 249.761719 C 282.59375 248.960938 282.335938 248.117188 282.21875 247.234375 C 282.097656 246.347656 282.125 245.46875 282.292969 244.589844 C 282.464844 243.714844 282.769531 242.886719 283.210938 242.109375 C 287.835938 234.046875 291.375 225.535156 293.832031 216.570312 C 294.066406 215.707031 294.433594 214.902344 294.933594 214.15625 C 295.433594 213.414062 296.039062 212.769531 296.753906 212.226562 C 297.464844 211.683594 298.246094 211.265625 299.09375 210.980469 C 299.945312 210.691406 300.816406 210.550781 301.710938 210.550781 L 339.839844 210.550781 C 339.894531 210.554688 339.921875 210.53125 339.921875 210.476562 L 339.921875 164.53125 C 339.921875 164.476562 339.894531 164.453125 339.839844 164.457031 L 301.6875 164.457031 C 300.792969 164.457031 299.917969 164.316406 299.070312 164.027344 C 298.222656 163.742188 297.441406 163.324219 296.730469 162.78125 C 296.015625 162.238281 295.410156 161.59375 294.910156 160.851562 C 294.410156 160.105469 294.042969 159.304688 293.804688 158.4375 C 291.351562 149.472656 287.808594 140.960938 283.1875 132.898438 C 282.746094 132.121094 282.441406 131.292969 282.269531 130.417969 C 282.101562 129.539062 282.074219 128.660156 282.191406 127.773438 C 282.3125 126.890625 282.570312 126.046875 282.964844 125.246094 C 283.359375 124.445312 283.871094 123.726562 284.503906 123.09375 L 311.457031 96.140625 C 311.492188 96.105469 311.492188 96.070312 311.457031 96.035156 L 279.023438 63.503906 C 278.984375 63.464844 278.945312 63.464844 278.90625 63.503906 L 251.953125 90.457031 C 251.320312 91.085938 250.605469 91.601562 249.804688 91.996094 C 249.003906 92.390625 248.160156 92.648438 247.273438 92.765625 C 246.390625 92.882812 245.507812 92.859375 244.632812 92.6875 C 243.753906 92.519531 242.929688 92.210938 242.152344 91.773438 C 234.089844 87.148438 225.574219 83.609375 216.609375 81.152344 C 215.746094 80.917969 214.941406 80.550781 214.199219 80.050781 C 213.453125 79.550781 212.8125 78.941406 212.265625 78.230469 C 211.722656 77.519531 211.308594 76.738281 211.019531 75.890625 C 210.734375 75.039062 210.589844 74.167969 210.589844 73.269531 L 210.589844 35.175781 C 210.589844 35.125 210.566406 35.101562 210.515625 35.101562 L 164.53125 35.101562 C 164.484375 35.101562 164.457031 35.125 164.457031 35.175781 L 164.457031 73.3125 C 164.457031 74.207031 164.316406 75.082031 164.027344 75.929688 C 163.742188 76.777344 163.324219 77.558594 162.78125 78.269531 C 162.238281 78.984375 161.59375 79.589844 160.851562 80.089844 C 160.105469 80.589844 159.304688 80.957031 158.4375 81.195312 C 149.472656 83.652344 140.957031 87.191406 132.890625 91.8125 C 132.113281 92.253906 131.285156 92.558594 130.410156 92.730469 C 129.53125 92.898438 128.652344 92.925781 127.765625 92.808594 C 126.882812 92.6875 126.039062 92.429688 125.238281 92.035156 C 124.4375 91.640625 123.71875 91.128906 123.085938 90.496094 L 96.132812 63.542969 C 96.09375 63.503906 96.058594 63.503906 96.019531 63.542969 L 63.503906 96.019531 C 63.464844 96.054688 63.464844 96.089844 63.503906 96.125 L 90.457031 123.078125 C 91.085938 123.710938 91.601562 124.429688 91.996094 125.230469 C 92.390625 126.03125 92.648438 126.875 92.765625 127.757812 C 92.882812 128.644531 92.859375 129.523438 92.6875 130.402344 C 92.519531 131.277344 92.210938 132.105469 91.773438 132.878906 C 87.148438 140.945312 83.609375 149.457031 81.152344 158.421875 C 80.917969 159.285156 80.550781 160.089844 80.050781 160.835938 C 79.550781 161.578125 78.941406 162.222656 78.230469 162.765625 C 77.519531 163.308594 76.738281 163.722656 75.890625 164.011719 C 75.039062 164.296875 74.167969 164.441406 73.269531 164.441406 L 35.175781 164.441406 C 35.125 164.441406 35.101562 164.464844 35.101562 164.515625 L 35.101562 210.453125 C 35.101562 210.5 35.125 210.527344 35.175781 210.527344 L 73.3125 210.527344 C 74.207031 210.523438 75.082031 210.667969 75.929688 210.957031 C 76.777344 211.242188 77.558594 211.65625 78.269531 212.203125 C 78.984375 212.746094 79.589844 213.390625 80.089844 214.132812 C 80.589844 214.875 80.957031 215.679688 81.195312 216.546875 C 83.648438 225.507812 87.191406 234.023438 91.8125 242.085938 C 92.253906 242.863281 92.558594 243.6875 92.730469 244.566406 C 92.898438 245.441406 92.925781 246.324219 92.808594 247.207031 C 92.6875 248.09375 92.429688 248.9375 92.035156 249.738281 C 91.640625 250.539062 91.128906 251.253906 90.496094 251.886719 L 63.542969 278.84375 C 63.511719 278.878906 63.511719 278.917969 63.542969 278.957031 L 96.019531 311.496094 C 96.058594 311.535156 96.09375 311.535156 96.132812 311.496094 L 123.085938 284.542969 C 123.847656 283.777344 124.726562 283.1875 125.722656 282.769531 C 126.71875 282.351562 127.757812 282.140625 128.835938 282.132812 Z M 187.605469 274.472656 C 184.75 274.484375 181.902344 274.355469 179.0625 274.085938 C 176.21875 273.816406 173.398438 273.40625 170.597656 272.855469 C 167.792969 272.308594 165.027344 271.621094 162.292969 270.800781 C 159.558594 269.976562 156.875 269.019531 154.234375 267.933594 C 151.59375 266.84375 149.015625 265.628906 146.496094 264.285156 C 143.976562 262.941406 141.53125 261.476562 139.15625 259.890625 C 136.785156 258.304688 134.492188 256.605469 132.289062 254.796875 C 130.082031 252.984375 127.972656 251.066406 125.953125 249.046875 C 101.515625 224.613281 94.027344 188.546875 106.410156 154.925781 C 107.425781 152.15625 108.59375 149.445312 109.90625 146.800781 C 111.21875 144.15625 112.667969 141.589844 114.261719 139.101562 C 115.851562 136.613281 117.570312 134.21875 119.421875 131.917969 C 121.269531 129.617188 123.238281 127.421875 125.328125 125.335938 C 127.414062 123.246094 129.609375 121.277344 131.910156 119.429688 C 134.210938 117.578125 136.605469 115.859375 139.09375 114.269531 C 141.582031 112.675781 144.148438 111.226562 146.792969 109.914062 C 149.4375 108.601562 152.148438 107.4375 154.917969 106.417969 C 188.539062 94.027344 224.605469 101.515625 249.046875 125.953125 C 273.484375 150.394531 280.972656 186.453125 268.589844 220.082031 C 267.570312 222.851562 266.40625 225.5625 265.09375 228.207031 C 263.78125 230.851562 262.328125 233.417969 260.738281 235.90625 C 259.144531 238.390625 257.425781 240.785156 255.574219 243.085938 C 253.722656 245.390625 251.753906 247.582031 249.667969 249.671875 C 247.578125 251.757812 245.382812 253.726562 243.082031 255.578125 C 240.78125 257.429688 238.386719 259.148438 235.898438 260.738281 C 233.410156 262.328125 230.84375 263.78125 228.199219 265.09375 C 225.554688 266.40625 222.84375 267.570312 220.074219 268.589844 C 209.601562 272.484375 198.777344 274.445312 187.605469 274.472656 Z M 187.730469 116.757812 C 178.378906 116.800781 169.328125 118.464844 160.570312 121.738281 C 158.351562 122.554688 156.183594 123.488281 154.070312 124.535156 C 151.953125 125.585938 149.898438 126.746094 147.90625 128.019531 C 145.917969 129.292969 144 130.667969 142.15625 132.148438 C 140.316406 133.628906 138.558594 135.203125 136.886719 136.875 C 135.21875 138.542969 133.640625 140.300781 132.160156 142.140625 C 130.679688 143.980469 129.300781 145.898438 128.027344 147.886719 C 126.753906 149.875 125.59375 151.929688 124.542969 154.046875 C 123.488281 156.160156 122.554688 158.328125 121.738281 160.546875 C 111.433594 188.527344 117.320312 217.289062 137.503906 237.464844 C 140.753906 240.761719 144.296875 243.703125 148.132812 246.292969 C 151.96875 248.886719 156.023438 251.070312 160.296875 252.851562 C 164.570312 254.632812 168.976562 255.972656 173.515625 256.875 C 178.058594 257.777344 182.640625 258.222656 187.269531 258.210938 C 196.621094 258.167969 205.675781 256.507812 214.429688 253.226562 C 216.648438 252.414062 218.8125 251.480469 220.929688 250.433594 C 223.046875 249.382812 225.097656 248.226562 227.089844 246.953125 C 229.078125 245.683594 230.996094 244.308594 232.835938 242.828125 C 234.679688 241.351562 236.433594 239.777344 238.105469 238.109375 C 239.777344 236.441406 241.355469 234.6875 242.835938 232.847656 C 244.316406 231.007812 245.695312 229.09375 246.96875 227.105469 C 248.242188 225.117188 249.40625 223.0625 250.457031 220.949219 C 251.507812 218.835938 252.441406 216.671875 253.261719 214.453125 C 263.566406 186.472656 257.679688 157.710938 237.496094 137.527344 C 234.246094 134.230469 230.707031 131.28125 226.871094 128.691406 C 223.035156 126.097656 218.980469 123.910156 214.707031 122.125 C 210.433594 120.34375 206.027344 119 201.484375 118.097656 C 196.945312 117.191406 192.359375 116.746094 187.730469 116.757812 Z M 187.730469 116.757812 " fill-opacity="1" fill-rule="nonzero"></path></g></svg>