<svg xmlns="http://www.w3.org/2000/svg" xmlns:xlink="http://www.w3.org/1999/xlink" width="500" zoomAndPan="magnify" viewBox="0 0 375 374.999991" height="500" preserveAspectRatio="xMidYMid meet"><defs><clipPath id="c297a99187"><path d="M 43 84 L 332.074219 84 L 332.074219 361.675781 L 43 361.675781 Z M 43 84 " clip-rule="nonzero"></path></clipPath><clipPath id="09cb44e8f6"><path d="M 115 13.675781 L 261 13.675781 L 261 144 L 115 144 Z M 115 13.675781 " clip-rule="nonzero"></path></clipPath></defs><g clip-path="url(#c297a99187)"><path fill="#ffffff" d="M 311.039062 361.324219 L 65.414062 361.324219 C 59.449219 361.324219 53.660156 358.835938 49.574219 354.5 C 45.472656 350.167969 43.304688 344.261719 43.640625 338.296875 L 56.570312 105.5625 C 57.210938 93.996094 66.765625 84.949219 78.347656 84.949219 L 298.105469 84.949219 C 309.683594 84.949219 319.242188 93.996094 319.882812 105.5625 L 332.8125 338.296875 C 333.148438 344.261719 330.980469 350.167969 326.878906 354.5 C 322.777344 358.835938 317 361.324219 311.039062 361.324219 Z M 78.347656 99.496094 C 74.492188 99.496094 71.292969 102.519531 71.085938 106.359375 L 58.15625 339.097656 C 58.054688 341.117188 58.753906 343.039062 60.132812 344.507812 C 61.53125 345.960938 63.394531 346.777344 65.414062 346.777344 L 311.039062 346.777344 C 313.058594 346.777344 314.9375 345.960938 316.316406 344.507812 C 317.699219 343.039062 318.414062 341.117188 318.296875 339.097656 L 305.363281 106.359375 C 305.160156 102.519531 301.960938 99.496094 298.105469 99.496094 Z M 78.347656 99.496094 " fill-opacity="1" fill-rule="nonzero"></path></g><g clip-path="url(#09cb44e8f6)"><path fill="#ffffff" d="M 253.683594 143.484375 C 249.667969 143.484375 246.410156 140.222656 246.410156 136.210938 L 246.410156 86.289062 C 246.410156 54.199219 220.3125 28.105469 188.226562 28.105469 C 156.136719 28.105469 130.042969 54.199219 130.042969 86.289062 L 130.042969 136.210938 C 130.042969 140.222656 126.785156 143.484375 122.769531 143.484375 C 118.753906 143.484375 115.496094 140.222656 115.496094 136.210938 L 115.496094 86.289062 C 115.496094 46.183594 148.121094 13.558594 188.226562 13.558594 C 228.328125 13.558594 260.957031 46.183594 260.957031 86.289062 L 260.957031 136.210938 C 260.957031 140.222656 257.699219 143.484375 253.683594 143.484375 Z M 253.683594 143.484375 " fill-opacity="1" fill-rule="nonzero"></path></g></svg>