<svg xmlns="http://www.w3.org/2000/svg" xmlns:xlink="http://www.w3.org/1999/xlink" width="500" zoomAndPan="magnify" viewBox="0 0 375 374.999991" height="500" preserveAspectRatio="xMidYMid meet"><defs><clipPath id="b85f9d46df"><path d="M 52 16.128906 L 322 16.128906 L 322 358.878906 L 52 358.878906 Z M 52 16.128906 " clip-rule="nonzero"></path></clipPath></defs><g clip-path="url(#b85f9d46df)"><path fill="#ffffff" d="M 316.136719 118.445312 L 292.59375 118.445312 L 292.59375 95.03125 C 292.59375 94.648438 292.554688 94.269531 292.480469 93.898438 C 292.40625 93.523438 292.296875 93.160156 292.152344 92.808594 C 292.003906 92.453125 291.828125 92.121094 291.613281 91.804688 C 291.402344 91.484375 291.164062 91.191406 290.894531 90.921875 C 290.625 90.652344 290.328125 90.414062 290.011719 90.199219 C 289.695312 89.988281 289.359375 89.808594 289.007812 89.664062 C 288.65625 89.519531 288.292969 89.410156 287.917969 89.335938 C 287.546875 89.257812 287.167969 89.222656 286.785156 89.222656 L 286.28125 89.222656 L 258.761719 92.757812 L 258.761719 60.945312 C 258.761719 60.011719 258.550781 59.125 258.128906 58.292969 C 257.707031 57.457031 257.117188 56.765625 256.363281 56.210938 C 255.3125 55.503906 254.15625 55.148438 252.890625 55.136719 C 252.300781 55.046875 251.714844 55.046875 251.125 55.136719 L 219.566406 65.363281 L 219.566406 21.9375 C 219.59375 20.90625 219.367188 19.933594 218.882812 19.023438 C 218.398438 18.113281 217.722656 17.378906 216.851562 16.824219 C 215.898438 16.335938 214.890625 16.105469 213.820312 16.128906 C 212.628906 16.109375 211.535156 16.425781 210.539062 17.078125 L 55.390625 119.394531 C 54.589844 119.964844 53.957031 120.679688 53.492188 121.546875 C 53.023438 122.410156 52.773438 123.335938 52.738281 124.316406 L 52.738281 356.976562 C 52.808594 357.261719 52.910156 357.535156 53.054688 357.796875 L 53.054688 358.109375 L 53.371094 358.554688 C 53.519531 358.523438 53.664062 358.523438 53.8125 358.554688 L 316.136719 358.554688 C 316.519531 358.554688 316.894531 358.515625 317.269531 358.441406 C 317.644531 358.367188 318.007812 358.257812 318.359375 358.109375 C 318.710938 357.964844 319.046875 357.785156 319.363281 357.574219 C 319.679688 357.363281 319.972656 357.121094 320.242188 356.851562 C 320.511719 356.582031 320.753906 356.289062 320.964844 355.972656 C 321.175781 355.65625 321.355469 355.320312 321.503906 354.96875 C 321.648438 354.617188 321.757812 354.253906 321.832031 353.878906 C 321.90625 353.503906 321.945312 353.128906 321.945312 352.746094 L 321.945312 124.316406 C 321.945312 123.933594 321.90625 123.554688 321.832031 123.179688 C 321.757812 122.804688 321.648438 122.4375 321.503906 122.085938 C 321.359375 121.730469 321.179688 121.394531 320.96875 121.074219 C 320.757812 120.757812 320.515625 120.460938 320.246094 120.1875 C 319.976562 119.917969 319.683594 119.671875 319.367188 119.457031 C 319.050781 119.242188 318.714844 119.0625 318.363281 118.910156 C 318.011719 118.761719 317.648438 118.648438 317.273438 118.570312 C 316.898438 118.492188 316.519531 118.449219 316.136719 118.445312 Z M 287.605469 331.726562 C 287.957031 331.6875 288.300781 331.617188 288.636719 331.515625 C 288.972656 331.414062 289.300781 331.28125 289.613281 331.121094 C 289.925781 330.960938 290.21875 330.769531 290.5 330.554688 C 290.777344 330.339844 291.03125 330.101562 291.265625 329.835938 C 291.5 329.574219 291.707031 329.292969 291.890625 328.992188 C 292.074219 328.691406 292.226562 328.375 292.351562 328.046875 C 292.476562 327.714844 292.566406 327.378906 292.628906 327.03125 C 292.691406 326.683594 292.722656 326.335938 292.71875 325.984375 L 292.71875 130.125 L 310.332031 130.125 L 310.332031 349.589844 L 144.390625 349.589844 C 150.449219 347.824219 287.605469 331.726562 287.605469 331.726562 Z M 254.722656 297.578125 C 255.308594 297.390625 255.855469 297.117188 256.355469 296.753906 C 256.855469 296.394531 257.289062 295.964844 257.652344 295.464844 C 258.015625 294.964844 258.289062 294.421875 258.480469 293.832031 C 258.671875 293.246094 258.765625 292.644531 258.761719 292.023438 L 258.761719 104.496094 L 281.167969 101.59375 L 281.167969 321.058594 L 130.375 338.984375 Z M 216.851562 257.941406 C 217.667969 257.402344 218.304688 256.703125 218.765625 255.839844 C 219.222656 254.976562 219.449219 254.058594 219.4375 253.082031 L 219.4375 77.859375 L 246.769531 68.960938 L 246.769531 287.542969 L 97.933594 336.398438 Z M 64.417969 127.410156 L 207.949219 32.730469 L 207.949219 249.671875 L 64.417969 344.351562 Z M 64.417969 127.410156 " fill-opacity="1" fill-rule="nonzero"></path></g></svg>