<svg xmlns="http://www.w3.org/2000/svg" xmlns:xlink="http://www.w3.org/1999/xlink" width="500" zoomAndPan="magnify" viewBox="0 0 375 374.999991" height="500" preserveAspectRatio="xMidYMid meet"><defs><clipPath id="1ee5ed19e4"><path d="M 0 59 L 322 59 L 322 375 L 0 375 Z M 0 59 " clip-rule="nonzero"></path></clipPath><clipPath id="09eac1b92c"><path d="M -10.324219 135.167969 L 259.6875 -3.960938 L 385.417969 240.050781 L 115.40625 379.179688 Z M -10.324219 135.167969 " clip-rule="nonzero"></path></clipPath><clipPath id="e772519dc4"><path d="M -283.160156 275.753906 L 259.53125 -3.878906 L 385.261719 240.128906 L -157.429688 519.765625 Z M -283.160156 275.753906 " clip-rule="nonzero"></path></clipPath><clipPath id="747a92dcf6"><path d="M -283.160156 275.753906 L 259.53125 -3.878906 L 385.261719 240.128906 L -157.429688 519.765625 Z M -283.160156 275.753906 " clip-rule="nonzero"></path></clipPath></defs><rect x="-37.5" width="450" fill="#ffffff" y="-37.499999" height="449.999989" fill-opacity="1"></rect><rect x="-37.5" width="450" fill="#ffffff" y="-37.499999" height="449.999989" fill-opacity="1"></rect><g clip-path="url(#1ee5ed19e4)"><g clip-path="url(#09eac1b92c)"><g clip-path="url(#e772519dc4)"><g clip-path="url(#747a92dcf6)"><path fill="#000000" d="M 267.609375 296.039062 L 321.316406 127.800781 C 323.238281 121.78125 320.035156 115.566406 314.015625 113.636719 L 145.84375 59.730469 C 139.824219 57.800781 133.621094 60.996094 131.699219 67.019531 C 129.777344 73.042969 132.976562 79.253906 138.996094 81.183594 L 281.585938 126.890625 L -214.535156 382.53125 C -219.996094 385.34375 -222.160156 392.117188 -219.34375 397.585938 C -216.527344 403.050781 -209.753906 405.222656 -204.292969 402.410156 L 291.828125 146.769531 L 246.164062 289.164062 C 245.203125 292.175781 245.492188 295.171875 246.769531 297.65625 C 248.050781 300.140625 250.324219 302.113281 253.335938 303.078125 C 259.355469 305.007812 265.558594 301.8125 267.609375 296.039062 Z M 267.609375 296.039062 " fill-opacity="1" fill-rule="nonzero"></path></g></g></g></g></svg>