<svg xmlns="http://www.w3.org/2000/svg" width="123" height="117" viewBox="0 0 123 117" fill="none"><path d="M8.68149 64.9707C4.62957 64.9707 1.34597 61.9909 1.34597 58.3176C1.34597 54.6432 4.62957 51.6645 8.68149 51.6645C12.7346 51.6645 16.0182 54.6443 16.0182 58.3176C16.0182 61.992 12.7346 64.9707 8.68149 64.9707ZM26.5002 82.0789C22.4483 82.0789 19.1635 79.1012 19.1635 75.4258C19.1635 71.7514 22.4494 68.7737 26.5002 68.7737C30.5521 68.7737 33.8393 71.7514 33.8393 75.4258C33.8393 79.1012 30.5521 82.0789 26.5002 82.0789ZM44.3177 99.1881C40.2681 99.1881 36.9822 96.2104 36.9822 92.535C36.9822 88.8595 40.2681 85.8819 44.3177 85.8819C48.3696 85.8819 51.6544 88.8595 51.6544 92.535C51.6544 96.2104 48.3685 99.1881 44.3177 99.1881ZM62.1376 116.297C58.0857 116.297 54.8009 113.32 54.8009 109.644C54.8009 105.97 58.0868 102.992 62.1376 102.992C66.1895 102.992 69.4767 105.97 69.4767 109.644C69.4767 113.32 66.1895 116.297 62.1376 116.297ZM79.9563 99.1892C75.9044 99.1892 72.6196 96.2115 72.6196 92.5361C72.6196 88.8606 75.9055 85.883 79.9563 85.883C84.0082 85.883 87.293 88.8606 87.293 92.5361C87.293 96.2115 84.007 99.1892 79.9563 99.1892ZM97.7738 82.0789C93.7219 82.0789 90.4371 79.1012 90.4371 75.4258C90.4371 71.7514 93.7231 68.7737 97.7738 68.7737C101.826 68.7737 105.113 71.7514 105.113 75.4258C105.113 79.1012 101.826 82.0789 97.7738 82.0789ZM115.593 64.9707C111.543 64.9707 108.256 61.9909 108.256 58.3176C108.256 54.6432 111.543 51.6645 115.593 51.6645C119.644 51.6645 122.929 54.6443 122.929 58.3176C122.929 61.992 119.643 64.9707 115.593 64.9707ZM8.30102 47.8334C4.2491 47.8334 0.965482 44.8536 0.965483 41.1803C0.965483 37.5059 4.2491 34.5272 8.30102 34.5272C12.3541 34.5272 15.6377 37.507 15.6377 41.1803C15.6377 44.8547 12.3541 47.8334 8.30102 47.8334ZM26.1197 64.9405C22.0678 64.9405 18.783 61.9628 18.783 58.2874C18.783 54.613 22.069 51.6354 26.1197 51.6354C30.1717 51.6354 33.4588 54.613 33.4588 58.2874C33.4588 61.9628 30.1717 64.9405 26.1197 64.9405ZM43.9384 82.0508C39.8888 82.0508 36.6029 79.0731 36.6029 75.3977C36.6029 71.7222 39.8888 68.7446 43.9384 68.7446C47.9903 68.7446 51.2751 71.7222 51.2751 75.3977C51.2751 79.0731 47.9892 82.0508 43.9384 82.0508ZM61.7571 99.1589C57.7052 99.1589 54.4204 96.1813 54.4204 92.5058C54.4204 88.8315 57.7064 85.8538 61.7571 85.8538C65.809 85.8538 69.0962 88.8315 69.0962 92.5058C69.0962 96.1813 65.809 99.1589 61.7571 99.1589ZM79.5758 82.0508C75.5239 82.0508 72.2391 79.0731 72.2391 75.3977C72.2391 71.7222 75.5251 68.7446 79.5758 68.7446C83.6277 68.7446 86.9125 71.7222 86.9125 75.3977C86.9125 79.0731 83.6266 82.0508 79.5758 82.0508ZM97.3945 64.9405C93.3426 64.9405 90.0578 61.9628 90.0578 58.2874C90.0578 54.613 93.3438 51.6354 97.3945 51.6354C101.446 51.6354 104.734 54.613 104.734 58.2874C104.734 61.9628 101.446 64.9405 97.3945 64.9405ZM115.212 47.8334C111.162 47.8334 107.875 44.8536 107.875 41.1803C107.875 37.5059 111.162 34.5272 115.212 34.5272C119.264 34.5272 122.549 37.507 122.549 41.1803C122.549 44.8547 119.263 47.8334 115.212 47.8334ZM8.75228 30.7766C4.70035 30.7766 1.41675 27.7968 1.41675 24.1235C1.41675 20.4491 4.70035 17.4704 8.75228 17.4704C12.8054 17.4704 16.089 20.4502 16.089 24.1235C16.089 27.7979 12.8054 30.7766 8.75228 30.7766ZM26.571 47.8848C22.519 47.8848 19.2343 44.9071 19.2343 41.2317C19.2343 37.5573 22.5202 34.5796 26.571 34.5796C30.6229 34.5796 33.9101 37.5573 33.9101 41.2317C33.9101 44.9071 30.6229 47.8848 26.571 47.8848ZM44.3885 64.994C40.3389 64.994 37.053 62.0163 37.053 58.3409C37.053 54.6654 40.3389 51.6878 44.3885 51.6878C48.4404 51.6878 51.7252 54.6654 51.7252 58.3409C51.7252 62.0163 48.4392 64.994 44.3885 64.994ZM62.2072 82.1021C58.1553 82.1021 54.8705 79.1245 54.8705 75.449C54.8705 71.7747 58.1564 68.797 62.2072 68.797C66.2591 68.797 69.5463 71.7747 69.5463 75.449C69.5463 79.1245 66.2591 82.1021 62.2072 82.1021ZM80.0271 64.994C75.9751 64.994 72.6904 62.0163 72.6904 58.3409C72.6904 54.6654 75.9763 51.6878 80.0271 51.6878C84.079 51.6878 87.3638 54.6654 87.3638 58.3409C87.3638 62.0163 84.0778 64.994 80.0271 64.994ZM97.8446 47.8848C93.7927 47.8848 90.5079 44.9071 90.5079 41.2317C90.5079 37.5573 93.7938 34.5796 97.8446 34.5796C101.897 34.5796 105.184 37.5573 105.184 41.2317C105.184 44.9071 101.897 47.8848 97.8446 47.8848ZM115.663 30.7766C111.614 30.7766 108.327 27.7968 108.327 24.1235C108.327 20.4491 111.614 17.4704 115.663 17.4704C119.715 17.4704 123 20.4502 123 24.1235C123 27.7979 119.714 30.7766 115.663 30.7766ZM8.37181 13.6382C4.31988 13.6382 1.03627 10.6584 1.03627 6.98512C1.03627 3.31074 4.31988 0.332027 8.37181 0.332027C12.4249 0.332027 15.7085 3.31181 15.7085 6.98512C15.7085 10.6595 12.4249 13.6382 8.37181 13.6382ZM26.1905 30.7464C22.1386 30.7464 18.8538 27.7687 18.8538 24.0933C18.8538 20.4189 22.1398 17.4413 26.1905 17.4413C30.2424 17.4413 33.5296 20.4189 33.5296 24.0933C33.5296 27.7687 30.2424 30.7464 26.1905 30.7464ZM44.0092 47.8556C39.9596 47.8556 36.6737 44.878 36.6737 41.2025C36.6737 37.5271 39.9596 34.5494 44.0092 34.5494C48.0611 34.5494 51.3459 37.5271 51.3459 41.2025C51.3459 44.878 48.0599 47.8556 44.0092 47.8556ZM61.8279 64.9638C57.776 64.9638 54.4912 61.9861 54.4912 58.3107C54.4912 54.6363 57.7772 51.6586 61.8279 51.6586C65.8798 51.6586 69.167 54.6363 69.167 58.3107C69.167 61.9861 65.8798 64.9638 61.8279 64.9638ZM79.6466 47.8556C75.5947 47.8556 72.3099 44.878 72.3099 41.2025C72.3099 37.5271 75.5959 34.5494 79.6466 34.5494C83.6985 34.5494 86.9833 37.5271 86.9833 41.2025C86.9833 44.878 83.6973 47.8556 79.6466 47.8556ZM97.4653 30.7464C93.4134 30.7464 90.1286 27.7687 90.1286 24.0933C90.1286 20.4189 93.4145 17.4413 97.4653 17.4413C101.517 17.4413 104.804 20.4189 104.804 24.0933C104.804 27.7687 101.517 30.7464 97.4653 30.7464ZM115.283 13.6382C111.233 13.6382 107.946 10.6584 107.946 6.98513C107.946 3.31075 111.233 0.332031 115.283 0.332031C119.335 0.332031 122.62 3.31182 122.62 6.98513C122.62 10.6595 119.334 13.6382 115.283 13.6382Z" fill="black"></path></svg>