<svg xmlns="http://www.w3.org/2000/svg" xmlns:xlink="http://www.w3.org/1999/xlink" width="500" zoomAndPan="magnify" viewBox="0 0 375 374.999991" height="500" preserveAspectRatio="xMidYMid meet"><defs><clipPath id="a47eede07b"><path d="M 11.679688 11.679688 L 363.429688 11.679688 L 363.429688 363.429688 L 11.679688 363.429688 Z M 11.679688 11.679688 " clip-rule="nonzero"></path></clipPath></defs><g clip-path="url(#a47eede07b)"><path fill="#ffffff" d="M 360.914062 187.453125 L 290.523438 175.53125 C 287.742188 175.070312 284.988281 174.5 282.253906 173.816406 C 279.519531 173.136719 276.820312 172.347656 274.148438 171.453125 C 271.480469 170.554688 268.847656 169.554688 266.257812 168.449219 C 263.667969 167.34375 261.125 166.136719 258.628906 164.828125 C 256.132812 163.519531 253.695312 162.113281 251.3125 160.613281 C 248.929688 159.109375 246.613281 157.515625 244.355469 155.828125 C 242.101562 154.140625 239.914062 152.367188 237.800781 150.503906 C 235.6875 148.644531 233.648438 146.699219 231.691406 144.675781 C 229.730469 142.652344 227.855469 140.554688 226.0625 138.382812 C 224.269531 136.210938 222.566406 133.96875 220.953125 131.660156 C 219.339844 129.351562 217.820312 126.980469 216.394531 124.550781 C 214.96875 122.121094 213.644531 119.640625 212.414062 117.105469 C 211.1875 114.570312 210.0625 111.988281 209.042969 109.363281 C 208.019531 106.738281 207.105469 104.078125 206.292969 101.378906 C 205.484375 98.683594 204.78125 95.957031 204.191406 93.203125 C 203.597656 90.449219 203.113281 87.675781 202.742188 84.882812 L 193.089844 14.148438 C 193.042969 13.808594 192.941406 13.488281 192.78125 13.1875 C 192.621094 12.886719 192.410156 12.625 192.15625 12.398438 C 191.902344 12.171875 191.613281 11.996094 191.296875 11.871094 C 190.980469 11.746094 190.648438 11.683594 190.308594 11.679688 C 189.964844 11.671875 189.636719 11.726562 189.3125 11.839844 C 188.992188 11.953125 188.699219 12.117188 188.4375 12.335938 C 188.175781 12.554688 187.957031 12.8125 187.789062 13.109375 C 187.617188 13.402344 187.503906 13.71875 187.445312 14.054688 L 175.53125 84.449219 C 175.066406 87.230469 174.496094 89.984375 173.816406 92.71875 C 173.132812 95.449219 172.347656 98.152344 171.449219 100.824219 C 170.554688 103.492188 169.550781 106.125 168.445312 108.714844 C 167.339844 111.304688 166.132812 113.847656 164.824219 116.339844 C 163.515625 118.835938 162.113281 121.273438 160.609375 123.65625 C 159.105469 126.039062 157.511719 128.359375 155.824219 130.613281 C 154.136719 132.867188 152.363281 135.054688 150.5 137.167969 C 148.640625 139.28125 146.699219 141.316406 144.675781 143.277344 C 142.652344 145.238281 140.550781 147.113281 138.378906 148.90625 C 136.207031 150.695312 133.964844 152.398438 131.65625 154.011719 C 129.347656 155.628906 126.980469 157.148438 124.550781 158.570312 C 122.121094 159.996094 119.636719 161.324219 117.101562 162.550781 C 114.566406 163.777344 111.988281 164.902344 109.363281 165.925781 C 106.738281 166.945312 104.078125 167.863281 101.378906 168.671875 C 98.683594 169.480469 95.957031 170.183594 93.203125 170.777344 C 90.449219 171.367188 87.675781 171.851562 84.882812 172.222656 L 14.148438 181.875 C 13.808594 181.921875 13.488281 182.023438 13.1875 182.183594 C 12.886719 182.347656 12.625 182.554688 12.398438 182.808594 C 12.171875 183.0625 12 183.351562 11.875 183.667969 C 11.75 183.988281 11.6875 184.316406 11.683594 184.65625 C 11.675781 184.996094 11.730469 185.328125 11.84375 185.648438 C 11.957031 185.972656 12.121094 186.265625 12.339844 186.527344 C 12.558594 186.789062 12.8125 187.003906 13.109375 187.175781 C 13.40625 187.34375 13.71875 187.460938 14.054688 187.515625 L 84.445312 199.4375 C 87.226562 199.898438 89.980469 200.472656 92.714844 201.152344 C 95.449219 201.832031 98.148438 202.621094 100.820312 203.519531 C 103.488281 204.414062 106.121094 205.414062 108.710938 206.523438 C 111.300781 207.628906 113.84375 208.835938 116.335938 210.144531 C 118.832031 211.449219 121.269531 212.855469 123.652344 214.359375 C 126.035156 215.863281 128.355469 217.457031 130.609375 219.144531 C 132.863281 220.832031 135.050781 222.605469 137.164062 224.464844 C 139.277344 226.328125 141.316406 228.269531 143.273438 230.292969 C 145.234375 232.316406 147.109375 234.414062 148.902344 236.585938 C 150.695312 238.761719 152.398438 241 154.011719 243.308594 C 155.625 245.617188 157.144531 247.988281 158.570312 250.417969 C 159.992188 252.847656 161.320312 255.328125 162.546875 257.863281 C 163.773438 260.398438 164.898438 262.976562 165.921875 265.601562 C 166.941406 268.226562 167.859375 270.890625 168.667969 273.585938 C 169.480469 276.285156 170.179688 279.011719 170.773438 281.761719 C 171.367188 284.515625 171.847656 287.289062 172.21875 290.082031 L 181.871094 360.820312 C 181.917969 361.15625 182.019531 361.476562 182.179688 361.777344 C 182.339844 362.078125 182.550781 362.34375 182.804688 362.570312 C 183.058594 362.796875 183.347656 362.96875 183.664062 363.09375 C 183.984375 363.21875 184.3125 363.28125 184.652344 363.289062 L 184.699219 363.289062 C 185.039062 363.289062 185.363281 363.230469 185.679688 363.113281 C 185.996094 362.996094 186.285156 362.832031 186.542969 362.613281 C 186.800781 362.394531 187.011719 362.140625 187.179688 361.847656 C 187.347656 361.554688 187.457031 361.242188 187.515625 360.910156 L 199.433594 290.519531 C 199.898438 287.742188 200.46875 284.984375 201.148438 282.253906 C 201.832031 279.519531 202.621094 276.816406 203.515625 274.148438 C 204.414062 271.476562 205.414062 268.847656 206.519531 266.257812 C 207.625 263.664062 208.832031 261.125 210.140625 258.628906 C 211.449219 256.136719 212.855469 253.695312 214.355469 251.3125 C 215.859375 248.933594 217.453125 246.613281 219.140625 244.359375 C 220.828125 242.101562 222.601562 239.917969 224.464844 237.804688 C 226.324219 235.691406 228.265625 233.652344 230.289062 231.695312 C 232.3125 229.734375 234.414062 227.859375 236.585938 226.066406 C 238.757812 224.273438 241 222.570312 243.308594 220.957031 C 245.617188 219.34375 247.984375 217.824219 250.414062 216.398438 C 252.84375 214.972656 255.324219 213.648438 257.859375 212.417969 C 260.394531 211.191406 262.976562 210.066406 265.601562 209.046875 C 268.226562 208.023438 270.886719 207.109375 273.582031 206.296875 C 276.28125 205.488281 279.007812 204.785156 281.761719 204.195312 C 284.515625 203.601562 287.285156 203.117188 290.078125 202.746094 L 360.816406 193.09375 C 361.152344 193.050781 361.472656 192.945312 361.773438 192.785156 C 362.074219 192.625 362.339844 192.417969 362.566406 192.160156 C 362.792969 191.90625 362.96875 191.621094 363.089844 191.300781 C 363.214844 190.984375 363.28125 190.652344 363.285156 190.3125 C 363.289062 189.972656 363.238281 189.640625 363.125 189.316406 C 363.011719 188.996094 362.84375 188.703125 362.625 188.441406 C 362.410156 188.179688 362.152344 187.964844 361.855469 187.792969 C 361.558594 187.621094 361.242188 187.507812 360.90625 187.453125 Z M 289.308594 197.089844 C 286.371094 197.488281 283.453125 198.003906 280.554688 198.636719 C 277.65625 199.269531 274.789062 200.015625 271.953125 200.875 C 269.113281 201.734375 266.3125 202.707031 263.550781 203.785156 C 260.789062 204.867188 258.078125 206.058594 255.410156 207.351562 C 252.742188 208.648438 250.128906 210.050781 247.574219 211.554688 C 245.019531 213.058594 242.527344 214.660156 240.097656 216.359375 C 237.667969 218.0625 235.308594 219.855469 233.023438 221.742188 C 230.734375 223.632812 228.527344 225.605469 226.394531 227.671875 C 224.265625 229.734375 222.21875 231.878906 220.257812 234.101562 C 218.300781 236.328125 216.429688 238.625 214.652344 241 C 212.875 243.371094 211.191406 245.8125 209.605469 248.320312 C 208.023438 250.824219 206.539062 253.390625 205.15625 256.015625 C 203.777344 258.640625 202.5 261.3125 201.332031 264.039062 C 200.160156 266.765625 199.101562 269.53125 198.152344 272.339844 C 197.199219 275.148438 196.363281 277.992188 195.636719 280.867188 C 194.914062 283.742188 194.300781 286.644531 193.808594 289.566406 L 185.003906 341.539062 L 177.878906 289.308594 C 177.480469 286.371094 176.960938 283.453125 176.332031 280.554688 C 175.699219 277.65625 174.953125 274.789062 174.09375 271.953125 C 173.234375 269.113281 172.261719 266.3125 171.183594 263.550781 C 170.101562 260.789062 168.910156 258.078125 167.613281 255.410156 C 166.320312 252.742188 164.917969 250.132812 163.414062 247.574219 C 161.910156 245.019531 160.308594 242.527344 158.609375 240.097656 C 156.90625 237.667969 155.113281 235.308594 153.226562 233.023438 C 151.335938 230.734375 149.363281 228.527344 147.300781 226.394531 C 145.234375 224.265625 143.09375 222.21875 140.867188 220.261719 C 138.640625 218.300781 136.34375 216.429688 133.96875 214.652344 C 131.597656 212.875 129.15625 211.191406 126.648438 209.605469 C 124.144531 208.023438 121.578125 206.539062 118.953125 205.15625 C 116.332031 203.777344 113.65625 202.5 110.929688 201.332031 C 108.207031 200.160156 105.4375 199.101562 102.628906 198.152344 C 99.820312 197.199219 96.976562 196.363281 94.101562 195.636719 C 91.226562 194.914062 88.328125 194.300781 85.402344 193.808594 L 33.429688 185.003906 L 85.660156 177.878906 C 88.597656 177.480469 91.515625 176.960938 94.410156 176.332031 C 97.308594 175.699219 100.175781 174.953125 103.015625 174.09375 C 105.851562 173.234375 108.652344 172.261719 111.414062 171.179688 C 114.175781 170.101562 116.890625 168.910156 119.558594 167.613281 C 122.222656 166.316406 124.835938 164.917969 127.390625 163.414062 C 129.949219 161.910156 132.441406 160.308594 134.871094 158.609375 C 137.296875 156.90625 139.65625 155.113281 141.945312 153.222656 C 144.230469 151.335938 146.4375 149.359375 148.570312 147.296875 C 150.699219 145.234375 152.746094 143.089844 154.707031 140.867188 C 156.667969 138.640625 158.535156 136.34375 160.3125 133.96875 C 162.09375 131.597656 163.773438 129.15625 165.359375 126.648438 C 166.941406 124.144531 168.425781 121.578125 169.808594 118.953125 C 171.191406 116.328125 172.464844 113.65625 173.636719 110.929688 C 174.804688 108.203125 175.863281 105.4375 176.816406 102.628906 C 177.765625 99.820312 178.601562 96.976562 179.328125 94.101562 C 180.050781 91.226562 180.664062 88.328125 181.15625 85.402344 L 189.960938 33.429688 L 197.085938 85.660156 C 197.484375 88.597656 198.003906 91.515625 198.632812 94.414062 C 199.265625 97.3125 200.011719 100.179688 200.871094 103.015625 C 201.730469 105.855469 202.703125 108.65625 203.785156 111.414062 C 204.867188 114.175781 206.054688 116.890625 207.351562 119.558594 C 208.648438 122.226562 210.046875 124.835938 211.550781 127.394531 C 213.054688 129.949219 214.65625 132.441406 216.359375 134.871094 C 218.058594 137.300781 219.855469 139.660156 221.742188 141.945312 C 223.628906 144.230469 225.605469 146.441406 227.667969 148.570312 C 229.730469 150.703125 231.875 152.746094 234.101562 154.707031 C 236.324219 156.667969 238.625 158.535156 241 160.316406 C 243.371094 162.09375 245.8125 163.773438 248.316406 165.359375 C 250.824219 166.945312 253.390625 168.425781 256.015625 169.808594 C 258.636719 171.191406 261.3125 172.464844 264.039062 173.636719 C 266.761719 174.804688 269.53125 175.863281 272.339844 176.816406 C 275.148438 177.765625 277.992188 178.601562 280.867188 179.328125 C 283.742188 180.054688 286.640625 180.664062 289.566406 181.15625 L 341.539062 189.960938 Z M 289.308594 197.089844 " fill-opacity="1" fill-rule="nonzero"></path></g></svg>