<svg xmlns="http://www.w3.org/2000/svg" xmlns:xlink="http://www.w3.org/1999/xlink" width="500" zoomAndPan="magnify" viewBox="0 0 375 374.999991" height="500" preserveAspectRatio="xMidYMid meet"><defs><clipPath id="fc47e2a690"><path d="M 66 17 L 362 17 L 362 167 L 66 167 Z M 66 17 " clip-rule="nonzero"></path></clipPath><clipPath id="6e0aee25f4"><path d="M 257.074219 407.449219 L -30.472656 296.382812 L 79.511719 11.636719 L 367.058594 122.703125 Z M 257.074219 407.449219 " clip-rule="nonzero"></path></clipPath><clipPath id="69eb379113"><path d="M 257.074219 407.449219 L -30.472656 296.382812 L 79.511719 11.636719 L 367.058594 122.703125 Z M 257.074219 407.449219 " clip-rule="nonzero"></path></clipPath><clipPath id="23c71b1836"><path d="M 72 99 L 274 99 L 274 354 L 72 354 Z M 72 99 " clip-rule="nonzero"></path></clipPath><clipPath id="9cfc143be0"><path d="M 257.074219 407.449219 L -30.472656 296.382812 L 79.511719 11.636719 L 367.058594 122.703125 Z M 257.074219 407.449219 " clip-rule="nonzero"></path></clipPath><clipPath id="ffc8719d36"><path d="M 257.074219 407.449219 L -30.472656 296.382812 L 79.511719 11.636719 L 367.058594 122.703125 Z M 257.074219 407.449219 " clip-rule="nonzero"></path></clipPath></defs><g clip-path="url(#fc47e2a690)"><g clip-path="url(#6e0aee25f4)"><g clip-path="url(#69eb379113)"><path fill="#ffffff" d="M 328.863281 165.074219 L 79.109375 68.605469 C 78.488281 68.367188 77.878906 68.097656 77.285156 67.796875 C 76.6875 67.496094 76.109375 67.167969 75.546875 66.8125 C 74.984375 66.453125 74.441406 66.070312 73.914062 65.660156 C 73.390625 65.25 72.886719 64.816406 72.402344 64.355469 C 71.921875 63.894531 71.460938 63.414062 71.027344 62.910156 C 70.589844 62.402344 70.183594 61.878906 69.800781 61.332031 C 69.414062 60.789062 69.058594 60.226562 68.730469 59.644531 C 68.402344 59.066406 68.105469 58.472656 67.835938 57.863281 C 67.566406 57.253906 67.324219 56.632812 67.117188 56 C 66.90625 55.367188 66.730469 54.722656 66.585938 54.074219 C 66.4375 53.421875 66.324219 52.765625 66.242188 52.105469 C 66.164062 51.445312 66.113281 50.78125 66.097656 50.113281 C 66.082031 49.449219 66.097656 48.78125 66.148438 48.117188 C 66.199219 47.453125 66.277344 46.792969 66.394531 46.136719 C 66.507812 45.480469 66.652344 44.832031 66.832031 44.1875 C 67.007812 43.546875 67.21875 42.914062 67.457031 42.292969 L 71.949219 30.667969 C 72.1875 30.046875 72.457031 29.4375 72.757812 28.84375 C 73.058594 28.246094 73.386719 27.667969 73.742188 27.105469 C 74.101562 26.542969 74.484375 26 74.894531 25.472656 C 75.304688 24.949219 75.738281 24.445312 76.199219 23.960938 C 76.660156 23.480469 77.140625 23.019531 77.644531 22.585938 C 78.152344 22.152344 78.675781 21.742188 79.222656 21.359375 C 79.765625 20.972656 80.328125 20.617188 80.910156 20.289062 C 81.488281 19.960938 82.082031 19.664062 82.691406 19.394531 C 83.300781 19.125 83.921875 18.882812 84.554688 18.675781 C 85.1875 18.464844 85.832031 18.289062 86.480469 18.144531 C 87.132812 17.996094 87.789062 17.882812 88.449219 17.804688 C 89.109375 17.722656 89.773438 17.671875 90.441406 17.65625 C 91.105469 17.640625 91.773438 17.65625 92.4375 17.707031 C 93.101562 17.757812 93.761719 17.835938 94.417969 17.953125 C 95.074219 18.066406 95.726562 18.210938 96.367188 18.390625 C 97.007812 18.570312 97.640625 18.777344 98.261719 19.019531 L 348.019531 115.484375 C 348.640625 115.726562 349.25 115.996094 349.84375 116.296875 C 350.4375 116.597656 351.019531 116.925781 351.582031 117.28125 C 352.144531 117.636719 352.6875 118.023438 353.214844 118.433594 C 353.738281 118.84375 354.242188 119.277344 354.722656 119.738281 C 355.207031 120.195312 355.664062 120.679688 356.101562 121.183594 C 356.535156 121.6875 356.945312 122.214844 357.328125 122.757812 C 357.710938 123.304688 358.066406 123.867188 358.394531 124.445312 C 358.722656 125.027344 359.023438 125.621094 359.292969 126.230469 C 359.5625 126.839844 359.800781 127.460938 360.011719 128.09375 C 360.21875 128.726562 360.398438 129.367188 360.542969 130.019531 C 360.6875 130.667969 360.800781 131.324219 360.882812 131.988281 C 360.964844 132.648438 361.011719 133.3125 361.03125 133.976562 C 361.046875 134.644531 361.027344 135.308594 360.980469 135.972656 C 360.929688 136.640625 360.847656 137.300781 360.734375 137.957031 C 360.621094 138.613281 360.472656 139.261719 360.296875 139.90625 C 360.117188 140.546875 359.910156 141.179688 359.667969 141.800781 L 355.179688 153.425781 C 354.9375 154.046875 354.667969 154.65625 354.367188 155.25 C 354.070312 155.84375 353.742188 156.425781 353.382812 156.988281 C 353.027344 157.550781 352.644531 158.09375 352.234375 158.617188 C 351.824219 159.144531 351.386719 159.648438 350.929688 160.128906 C 350.46875 160.613281 349.984375 161.070312 349.480469 161.507812 C 348.976562 161.941406 348.453125 162.351562 347.90625 162.734375 C 347.363281 163.117188 346.800781 163.472656 346.21875 163.800781 C 345.640625 164.128906 345.042969 164.429688 344.433594 164.699219 C 343.824219 164.96875 343.203125 165.207031 342.570312 165.417969 C 341.9375 165.625 341.296875 165.804688 340.644531 165.949219 C 339.996094 166.09375 339.339844 166.207031 338.679688 166.289062 C 338.015625 166.371094 337.351562 166.417969 336.6875 166.4375 C 336.019531 166.453125 335.355469 166.433594 334.691406 166.386719 C 334.027344 166.335938 333.367188 166.253906 332.707031 166.140625 C 332.050781 166.027344 331.402344 165.878906 330.761719 165.703125 C 330.117188 165.523438 329.488281 165.316406 328.863281 165.074219 Z M 328.863281 165.074219 " fill-opacity="1" fill-rule="nonzero"></path></g></g></g><g clip-path="url(#23c71b1836)"><g clip-path="url(#9cfc143be0)"><g clip-path="url(#ffc8719d36)"><path fill="#ffffff" d="M 109.605469 350.492188 L 156.449219 229.210938 C 155.679688 228.828125 154.925781 228.417969 154.179688 227.988281 C 153.4375 227.554688 152.710938 227.097656 151.996094 226.621094 C 151.28125 226.140625 150.582031 225.640625 149.898438 225.117188 C 149.21875 224.59375 148.550781 224.050781 147.90625 223.484375 C 147.257812 222.917969 146.628906 222.332031 146.015625 221.726562 C 145.40625 221.121094 144.816406 220.496094 144.242188 219.855469 C 143.671875 219.210938 143.121094 218.550781 142.59375 217.875 C 142.0625 217.195312 141.558594 216.503906 141.070312 215.792969 C 140.585938 215.082031 140.125 214.355469 139.683594 213.617188 C 139.246094 212.878906 138.832031 212.125 138.441406 211.359375 C 138.046875 210.59375 137.679688 209.816406 137.339844 209.027344 C 136.996094 208.238281 136.679688 207.441406 136.390625 206.632812 C 136.097656 205.820312 135.832031 205.003906 135.59375 204.179688 C 135.355469 203.351562 135.140625 202.519531 134.953125 201.679688 C 134.769531 200.839844 134.609375 199.996094 134.476562 199.144531 C 134.34375 198.296875 134.238281 197.445312 134.160156 196.585938 C 134.078125 195.730469 134.027344 194.875 134.003906 194.011719 C 133.980469 193.152344 133.984375 192.292969 134.011719 191.433594 C 134.042969 190.574219 134.101562 189.71875 134.1875 188.863281 C 134.269531 188.007812 134.382812 187.15625 134.523438 186.304688 C 134.660156 185.457031 134.828125 184.613281 135.019531 183.777344 C 135.210938 182.9375 135.429688 182.105469 135.675781 181.28125 C 135.921875 180.457031 136.191406 179.640625 136.488281 178.835938 C 136.785156 178.027344 137.109375 177.230469 137.457031 176.445312 C 137.804688 175.660156 138.175781 174.882812 138.570312 174.121094 C 138.96875 173.359375 139.390625 172.609375 139.832031 171.871094 C 140.277344 171.136719 140.746094 170.414062 141.234375 169.707031 C 141.726562 169 142.238281 168.3125 142.773438 167.636719 C 143.304688 166.960938 143.859375 166.304688 144.4375 165.667969 C 145.011719 165.027344 145.609375 164.410156 146.222656 163.808594 C 146.835938 163.207031 147.472656 162.625 148.121094 162.066406 C 148.773438 161.503906 149.445312 160.964844 150.128906 160.445312 C 150.816406 159.929688 151.519531 159.433594 152.234375 158.957031 C 152.953125 158.484375 153.6875 158.035156 154.433594 157.605469 C 155.179688 157.179688 155.9375 156.777344 156.710938 156.398438 C 157.480469 156.019531 158.265625 155.664062 159.058594 155.335938 C 159.851562 155.003906 160.65625 154.703125 161.46875 154.421875 C 162.285156 154.144531 163.105469 153.890625 163.9375 153.667969 C 164.765625 153.441406 165.601562 153.242188 166.445312 153.066406 C 167.285156 152.894531 168.132812 152.75 168.984375 152.628906 C 169.835938 152.507812 170.691406 152.417969 171.546875 152.351562 C 172.40625 152.289062 173.265625 152.25 174.125 152.238281 C 174.984375 152.230469 175.84375 152.246094 176.703125 152.289062 C 177.5625 152.332031 178.417969 152.40625 179.273438 152.503906 C 180.125 152.601562 180.976562 152.726562 181.824219 152.878906 C 182.667969 153.03125 183.511719 153.210938 184.34375 153.417969 C 185.179688 153.621094 186.007812 153.855469 186.828125 154.113281 C 187.648438 154.371094 188.457031 154.65625 189.261719 154.964844 C 190.0625 155.273438 190.855469 155.609375 191.636719 155.96875 C 192.417969 156.332031 193.183594 156.714844 193.941406 157.125 C 194.699219 157.53125 195.441406 157.964844 196.171875 158.421875 C 196.898438 158.878906 197.613281 159.355469 198.3125 159.855469 C 199.011719 160.359375 199.691406 160.882812 200.359375 161.425781 C 201.023438 161.972656 201.671875 162.535156 202.300781 163.121094 C 202.929688 163.707031 203.539062 164.3125 204.132812 164.9375 C 204.722656 165.5625 205.292969 166.203125 205.84375 166.867188 C 206.394531 167.527344 206.921875 168.203125 207.429688 168.898438 C 207.9375 169.59375 208.421875 170.300781 208.882812 171.027344 C 209.347656 171.753906 209.785156 172.492188 210.199219 173.246094 C 210.617188 173.996094 211.007812 174.761719 211.375 175.542969 C 211.742188 176.320312 212.082031 177.109375 212.398438 177.90625 C 212.714844 178.707031 213.007812 179.515625 213.273438 180.332031 C 213.535156 181.152344 213.777344 181.976562 213.988281 182.808594 C 214.203125 183.644531 214.386719 184.484375 214.546875 185.328125 C 214.707031 186.171875 214.839844 187.023438 214.945312 187.875 C 215.050781 188.730469 215.128906 189.585938 215.179688 190.441406 C 215.230469 191.300781 215.257812 192.160156 215.253906 193.019531 C 215.25 193.878906 215.21875 194.738281 215.160156 195.597656 C 215.105469 196.457031 215.019531 197.3125 214.90625 198.164062 C 214.796875 199.015625 214.65625 199.863281 214.488281 200.707031 C 214.324219 201.550781 214.132812 202.390625 213.914062 203.222656 C 213.695312 204.050781 213.449219 204.875 213.175781 205.691406 C 212.90625 206.507812 212.609375 207.316406 212.285156 208.113281 C 211.964844 208.910156 211.617188 209.695312 211.242188 210.46875 C 210.871094 211.246094 210.472656 212.007812 210.054688 212.757812 C 209.632812 213.507812 209.1875 214.242188 208.71875 214.964844 C 208.253906 215.6875 207.761719 216.394531 207.25 217.082031 C 206.738281 217.773438 206.203125 218.449219 205.648438 219.105469 C 205.09375 219.761719 204.519531 220.398438 203.921875 221.019531 C 203.328125 221.640625 202.710938 222.238281 202.078125 222.820312 C 201.445312 223.402344 200.792969 223.960938 200.121094 224.503906 C 199.453125 225.042969 198.765625 225.558594 198.066406 226.054688 C 197.363281 226.550781 196.644531 227.027344 195.914062 227.476562 C 195.179688 227.925781 194.433594 228.355469 193.675781 228.757812 C 192.914062 229.160156 192.144531 229.539062 191.359375 229.894531 C 190.578125 230.246094 189.78125 230.578125 188.976562 230.878906 C 188.171875 231.183594 187.359375 231.460938 186.539062 231.714844 C 185.714844 231.96875 184.886719 232.191406 184.050781 232.390625 C 183.214844 232.59375 182.371094 232.765625 181.523438 232.910156 C 180.675781 233.058594 179.824219 233.175781 178.96875 233.269531 C 178.117188 233.359375 177.257812 233.425781 176.398438 233.460938 C 175.539062 233.5 174.679688 233.511719 173.820312 233.492188 C 172.960938 233.476562 172.101562 233.433594 171.246094 233.359375 C 170.390625 233.289062 169.535156 233.191406 168.683594 233.066406 C 167.832031 232.941406 166.988281 232.789062 166.148438 232.609375 C 165.304688 232.429688 164.472656 232.222656 163.644531 231.992188 L 116.796875 353.273438 L 273.28125 235.792969 L 265.355469 148.808594 L 137.0625 99.257812 L 72.71875 158.328125 Z M 109.605469 350.492188 " fill-opacity="1" fill-rule="nonzero"></path></g></g></g></svg>