<svg xmlns="http://www.w3.org/2000/svg" xmlns:xlink="http://www.w3.org/1999/xlink" width="500" zoomAndPan="magnify" viewBox="0 0 375 374.999991" height="500" preserveAspectRatio="xMidYMid meet"><defs><clipPath id="81c3de2b57"><path d="M 18 16 L 365.703125 16 L 365.703125 363.429688 L 18 363.429688 Z M 18 16 " clip-rule="nonzero"></path></clipPath></defs><g clip-path="url(#81c3de2b57)"><path fill="#ffffff" d="M 201.289062 363.3125 L 182.332031 363.3125 L 179.410156 362.742188 C 172.710938 361.886719 165.9375 361.386719 159.3125 360.105469 C 114.984375 351.339844 78.851562 328.890625 52.339844 292.472656 C 18.84375 246.363281 9.722656 195.191406 25.757812 140.53125 C 48.5625 62.492188 122.253906 11.679688 203.355469 16.882812 C 241.054688 19.375 274.480469 32.847656 303.269531 57.21875 C 335.484375 84.445312 355.296875 118.914062 362.707031 160.628906 C 363.777344 166.898438 364.417969 173.3125 365.273438 179.65625 L 365.273438 199.96875 L 364.632812 203.601562 C 363.847656 209.804688 363.347656 216.144531 362.136719 222.347656 C 354.296875 262.398438 334.628906 295.679688 303.628906 322.191406 C 297.804688 327.195312 291.667969 331.777344 285.21875 335.9375 C 278.769531 340.101562 272.066406 343.804688 265.109375 347.050781 C 258.152344 350.300781 251.007812 353.058594 243.675781 355.324219 C 236.339844 357.59375 228.886719 359.355469 221.3125 360.605469 C 214.6875 361.746094 207.988281 362.386719 201.289062 363.3125 Z M 118.332031 106.464844 L 70.867188 83.089844 C 46.066406 111.523438 32.457031 145.09375 30.53125 183.578125 L 102.296875 183.578125 C 102.667969 170.351562 104.199219 157.261719 106.894531 144.308594 C 109.585938 131.355469 113.398438 118.742188 118.332031 106.464844 Z M 312.820312 83.089844 L 265.285156 106.464844 C 275.191406 130.765625 280.464844 156.636719 281.390625 183.578125 L 353.085938 183.578125 C 351.164062 145.09375 337.621094 111.523438 312.820312 83.089844 Z M 102.296875 196.121094 L 30.53125 196.121094 C 32.382812 232.894531 44.855469 265.25 68.300781 293.613281 C 83.441406 283.398438 99.59375 275.179688 116.765625 268.953125 C 112.339844 257.304688 108.914062 245.367188 106.488281 233.140625 C 104.058594 220.917969 102.664062 208.578125 102.296875 196.121094 Z M 316.097656 292.757812 C 338.832031 265.105469 351.375 232.75 353.085938 196.121094 L 282.105469 196.121094 C 280.464844 208.734375 279.394531 221.132812 277.042969 233.25 C 274.691406 245.367188 270.84375 257.054688 267.921875 268.171875 Z M 130.234375 109.171875 C 125.308594 120.976562 121.511719 133.132812 118.839844 145.636719 C 116.167969 158.144531 114.667969 170.792969 114.339844 183.578125 L 185.609375 183.578125 L 185.609375 117.726562 C 166.789062 117.222656 148.328125 114.375 130.234375 109.171875 Z M 253.382812 109.171875 C 234.996094 114.519531 216.679688 117.085938 198.007812 117.867188 L 198.007812 183.578125 L 269.277344 183.578125 C 268.964844 170.789062 267.472656 158.140625 264.800781 145.632812 C 262.128906 133.125 258.324219 120.972656 253.382812 109.171875 Z M 198.007812 196.046875 L 198.007812 255.914062 C 217.527344 256.472656 236.648438 259.515625 255.378906 265.035156 C 263.21875 247.574219 270.773438 208.804688 268.847656 196.046875 Z M 185.539062 255.484375 L 185.539062 196.046875 L 114.339844 196.046875 C 114.640625 207.789062 115.933594 219.421875 118.21875 230.945312 C 120.503906 242.464844 123.746094 253.710938 127.953125 264.679688 C 137.789062 262.613281 147.125 260.1875 156.53125 258.691406 C 165.9375 257.195312 175.773438 256.554688 185.539062 255.484375 Z M 76.5 302.59375 C 102.511719 328.675781 133.441406 344.425781 170.714844 349.84375 C 160.324219 339.890625 150.972656 329.039062 142.667969 317.292969 C 134.359375 305.546875 127.246094 293.113281 121.324219 280 C 105.460938 285.703125 90.519531 293.234375 76.5 302.59375 Z M 212.976562 349.84375 C 250.175781 344.425781 281.179688 328.746094 307.191406 302.59375 C 293.179688 293.183594 278.210938 285.675781 262.292969 280.074219 C 256.390625 293.175781 249.292969 305.597656 240.996094 317.335938 C 232.699219 329.070312 223.359375 339.90625 212.976562 349.84375 Z M 250.816406 276.296875 C 233.632812 271.179688 216.078125 268.375 198.152344 267.886719 L 198.152344 347.136719 C 209.351562 337.339844 219.390625 326.46875 228.269531 314.527344 C 237.144531 302.585938 244.664062 289.84375 250.816406 276.296875 Z M 132.800781 276.296875 C 138.976562 289.847656 146.519531 302.59375 155.417969 314.535156 C 164.320312 326.476562 174.382812 337.34375 185.609375 347.136719 L 185.609375 267.886719 C 167.644531 268.410156 150.039062 271.214844 132.800781 276.296875 Z M 122.75 94.207031 C 130.019531 82.589844 136.433594 71.046875 144.132812 60.425781 C 151.828125 49.808594 160.949219 39.972656 169.359375 29.996094 C 135.292969 34.9375 105.527344 49.429688 80.0625 73.46875 C 93.484375 82.039062 107.714844 88.953125 122.75 94.207031 Z M 212.976562 29.78125 C 232.789062 49.023438 248.324219 70.261719 259.941406 94.277344 C 269.417969 92.070312 293.648438 80.453125 303.484375 73.398438 C 278.183594 49.523438 248.464844 34.984375 212.976562 29.78125 Z M 185.609375 32.417969 C 164.226562 51.304688 147.625 72.898438 135.363281 97.984375 C 147.410156 102.1875 178.410156 106.679688 185.609375 105.324219 Z M 248.394531 98.054688 C 242.273438 85.554688 234.972656 73.785156 226.492188 62.746094 C 218.007812 51.707031 208.515625 41.621094 198.007812 32.488281 L 198.007812 105.824219 C 215.125 105.304688 231.917969 102.714844 248.394531 98.054688 Z M 248.394531 98.054688 " fill-opacity="1" fill-rule="nonzero"></path></g></svg>