<svg xmlns="http://www.w3.org/2000/svg" xmlns:xlink="http://www.w3.org/1999/xlink" width="500" zoomAndPan="magnify" viewBox="0 0 375 374.999991" height="500" preserveAspectRatio="xMidYMid meet"><defs><clipPath id="e27735901a"><path d="M 46 17 L 352 17 L 352 348 L 46 348 Z M 46 17 " clip-rule="nonzero"></path></clipPath><clipPath id="afa30b0c03"><path d="M -41.691406 161.53125 L 275.3125 -25.863281 L 416.910156 213.664062 L 99.90625 401.058594 Z M -41.691406 161.53125 " clip-rule="nonzero"></path></clipPath><clipPath id="c87468e1e1"><path d="M -41.691406 161.53125 L 275.3125 -25.863281 L 416.910156 213.664062 L 99.90625 401.058594 Z M -41.691406 161.53125 " clip-rule="nonzero"></path></clipPath></defs><g clip-path="url(#e27735901a)"><g clip-path="url(#afa30b0c03)"><g clip-path="url(#c87468e1e1)"><path fill="#ffffff" d="M 194.46875 58.046875 C 170.539062 47.40625 151.910156 47.109375 142.011719 57.207031 C 134.085938 65.296875 132.953125 78.855469 138.53125 96.109375 C 134.230469 138.03125 122.625 173.558594 101.53125 207.195312 C 101.472656 207.28125 101.417969 207.367188 101.371094 207.457031 C 89.734375 225.972656 75.234375 243.914062 57.484375 262.042969 C 56.5625 262.992188 55.691406 263.984375 54.867188 265.015625 C 54.042969 266.050781 53.273438 267.125 52.554688 268.234375 C 51.839844 269.34375 51.175781 270.484375 50.570312 271.660156 C 49.964844 272.835938 49.414062 274.035156 48.925781 275.265625 C 48.4375 276.492188 48.011719 277.742188 47.644531 279.011719 C 47.277344 280.28125 46.976562 281.566406 46.734375 282.867188 C 46.496094 284.167969 46.320312 285.476562 46.207031 286.792969 C 46.09375 288.109375 46.046875 289.429688 46.0625 290.75 C 46.082031 292.074219 46.164062 293.390625 46.308594 294.703125 C 46.453125 296.019531 46.664062 297.320312 46.9375 298.617188 C 47.210938 299.910156 47.546875 301.1875 47.945312 302.445312 C 48.34375 303.707031 48.804688 304.945312 49.324219 306.160156 C 49.84375 307.375 50.421875 308.5625 51.058594 309.71875 C 51.695312 310.878906 52.386719 312.003906 53.132812 313.09375 C 53.878906 314.1875 54.675781 315.238281 55.527344 316.25 C 56.375 317.265625 57.273438 318.234375 58.214844 319.160156 C 59.160156 320.082031 60.148438 320.960938 61.179688 321.789062 C 62.207031 322.617188 63.277344 323.394531 64.382812 324.117188 C 65.488281 324.839844 66.628906 325.507812 67.800781 326.121094 C 68.972656 326.734375 70.167969 327.285156 71.394531 327.78125 C 72.621094 328.277344 73.867188 328.710938 75.136719 329.082031 C 76.40625 329.457031 77.6875 329.765625 78.988281 330.011719 C 80.285156 330.261719 81.59375 330.445312 82.910156 330.5625 C 84.226562 330.679688 85.546875 330.734375 86.867188 330.726562 C 88.1875 330.714844 89.507812 330.640625 90.820312 330.5 C 92.136719 330.363281 93.441406 330.160156 94.734375 329.890625 C 96.03125 329.625 97.308594 329.296875 98.570312 328.902344 C 99.832031 328.511719 101.074219 328.058594 102.292969 327.546875 C 103.507812 327.03125 104.699219 326.460938 105.863281 325.828125 C 107.023438 325.199219 108.152344 324.515625 109.246094 323.773438 C 110.34375 323.03125 111.398438 322.238281 112.414062 321.394531 C 113.433594 320.550781 114.40625 319.660156 115.335938 318.71875 C 116.414062 317.617188 117.496094 316.542969 118.574219 315.464844 L 182.125 346.570312 C 182.972656 346.988281 183.867188 347.261719 184.800781 347.398438 C 185.738281 347.53125 186.671875 347.519531 187.605469 347.359375 C 188.535156 347.199219 189.421875 346.898438 190.257812 346.460938 C 191.097656 346.019531 191.84375 345.460938 192.507812 344.785156 L 215.785156 321.023438 C 216.054688 320.746094 216.304688 320.457031 216.535156 320.148438 C 216.769531 319.84375 216.980469 319.523438 217.171875 319.1875 C 217.363281 318.855469 217.53125 318.507812 217.675781 318.152344 C 217.824219 317.796875 217.945312 317.433594 218.046875 317.0625 C 218.148438 316.691406 218.222656 316.3125 218.273438 315.933594 C 218.324219 315.550781 218.351562 315.167969 218.355469 314.78125 C 218.359375 314.398438 218.335938 314.015625 218.289062 313.632812 C 218.242188 313.25 218.171875 312.875 218.074219 312.5 C 217.980469 312.128906 217.863281 311.761719 217.71875 311.40625 C 217.578125 311.046875 217.414062 310.699219 217.226562 310.363281 C 217.039062 310.027344 216.832031 309.703125 216.605469 309.394531 C 216.378906 309.085938 216.128906 308.789062 215.863281 308.511719 C 215.597656 308.234375 215.316406 307.972656 215.015625 307.730469 C 214.71875 307.488281 214.402344 307.265625 214.078125 307.066406 C 213.75 306.863281 213.410156 306.683594 213.058594 306.527344 C 212.707031 306.367188 212.347656 306.230469 211.980469 306.121094 L 182.238281 297.058594 C 180.917969 296.6875 179.691406 296.109375 178.566406 295.328125 C 177.4375 294.546875 176.464844 293.605469 175.652344 292.5 L 163.855469 277.175781 C 165.527344 276.015625 167.207031 274.886719 168.890625 273.777344 L 168.90625 273.765625 C 168.9375 273.75 168.964844 273.726562 168.996094 273.707031 C 202.265625 251.824219 237.621094 239.4375 279.550781 234.261719 C 293.929688 238.585938 305.679688 238.363281 313.796875 233.566406 C 315.480469 232.570312 317.007812 231.378906 318.378906 229.980469 C 328.273438 219.878906 327.597656 201.257812 316.464844 177.554688 C 306.082031 155.4375 287.707031 130.859375 264.726562 108.34375 C 241.742188 85.832031 216.796875 67.96875 194.46875 58.046875 Z M 107.753906 311.289062 C 107.070312 311.984375 106.351562 312.644531 105.601562 313.273438 C 104.851562 313.898438 104.070312 314.484375 103.261719 315.03125 C 102.453125 315.582031 101.621094 316.089844 100.765625 316.554688 C 99.90625 317.023438 99.027344 317.449219 98.128906 317.828125 C 97.230469 318.210938 96.3125 318.546875 95.378906 318.835938 C 94.449219 319.128906 93.503906 319.371094 92.546875 319.570312 C 91.589844 319.769531 90.628906 319.921875 89.65625 320.023438 C 88.683594 320.128906 87.710938 320.183594 86.734375 320.195312 C 85.757812 320.203125 84.78125 320.164062 83.808594 320.078125 C 82.835938 319.988281 81.871094 319.855469 80.910156 319.671875 C 79.949219 319.492188 79.003906 319.261719 78.066406 318.988281 C 77.128906 318.714844 76.207031 318.394531 75.300781 318.027344 C 74.394531 317.664062 73.507812 317.253906 72.640625 316.800781 C 71.777344 316.351562 70.933594 315.855469 70.117188 315.320312 C 69.300781 314.789062 68.511719 314.214844 67.75 313.601562 C 66.988281 312.988281 66.257812 312.34375 65.558594 311.660156 C 64.863281 310.976562 64.199219 310.257812 63.574219 309.511719 C 62.945312 308.761719 62.355469 307.984375 61.804688 307.179688 C 61.253906 306.371094 60.742188 305.539062 60.273438 304.683594 C 59.804688 303.828125 59.375 302.949219 58.992188 302.050781 C 58.609375 301.152344 58.269531 300.238281 57.976562 299.308594 C 57.679688 298.375 57.433594 297.433594 57.230469 296.476562 C 57.03125 295.519531 56.875 294.558594 56.769531 293.585938 C 56.664062 292.617188 56.601562 291.640625 56.589844 290.664062 C 56.578125 289.6875 56.617188 288.714844 56.699219 287.742188 C 56.785156 286.765625 56.914062 285.800781 57.09375 284.839844 C 57.273438 283.878906 57.5 282.929688 57.769531 281.992188 C 58.042969 281.054688 58.359375 280.132812 58.722656 279.226562 C 59.085938 278.316406 59.492188 277.429688 59.941406 276.5625 C 60.390625 275.695312 60.878906 274.851562 61.410156 274.035156 C 61.945312 273.214844 62.515625 272.421875 63.125 271.660156 C 63.734375 270.898438 64.378906 270.164062 65.0625 269.464844 C 81.648438 252.53125 95.496094 235.742188 106.90625 218.53125 L 157.820312 268.410156 C 142.1875 279.371094 127.59375 291.574219 114.039062 305.023438 C 113.890625 305.152344 113.75 305.289062 113.621094 305.433594 C 111.664062 307.347656 109.710938 309.292969 107.753906 311.289062 Z M 167.242188 298.976562 C 168.730469 300.957031 170.492188 302.648438 172.53125 304.058594 C 174.566406 305.464844 176.769531 306.519531 179.148438 307.214844 L 206.34375 315.5 L 185.742188 336.527344 L 126.660156 307.605469 C 135.726562 298.988281 145.253906 290.917969 155.246094 283.390625 Z M 166.855469 262.402344 L 112.722656 209.375 C 130.324219 180.363281 141.234375 149.882812 146.738281 115.28125 C 154.238281 129.703125 164.90625 144.96875 177.847656 159.910156 C 178.058594 160.226562 178.300781 160.519531 178.570312 160.785156 L 178.8125 161.023438 C 184.085938 167.050781 189.71875 173.015625 195.667969 178.84375 C 201.617188 184.671875 207.699219 190.179688 213.839844 195.328125 L 214.082031 195.566406 C 214.347656 195.824219 214.636719 196.050781 214.949219 196.25 C 230.160156 208.890625 245.652344 219.246094 260.234375 226.449219 C 225.742188 232.671875 195.492188 244.203125 166.855469 262.402344 Z M 189.785156 156.921875 L 205.417969 140.960938 C 205.867188 140.503906 206.335938 140.070312 206.828125 139.660156 C 207.316406 139.246094 207.828125 138.863281 208.355469 138.5 C 208.882812 138.140625 209.429688 137.804688 209.992188 137.496094 C 210.550781 137.191406 211.128906 136.910156 211.714844 136.660156 C 212.304688 136.410156 212.90625 136.1875 213.515625 135.996094 C 214.125 135.804688 214.742188 135.640625 215.371094 135.511719 C 215.996094 135.378906 216.628906 135.277344 217.265625 135.207031 C 217.902344 135.140625 218.539062 135.101562 219.179688 135.09375 C 219.820312 135.089844 220.457031 135.113281 221.097656 135.167969 C 221.734375 135.226562 222.367188 135.3125 222.996094 135.429688 C 223.625 135.550781 224.246094 135.699219 224.863281 135.878906 C 225.476562 136.058594 226.078125 136.265625 226.671875 136.503906 C 227.269531 136.746094 227.847656 137.011719 228.417969 137.308594 C 228.984375 137.605469 229.535156 137.925781 230.070312 138.277344 C 230.605469 138.628906 231.125 139.003906 231.625 139.402344 C 232.121094 139.804688 232.601562 140.230469 233.058594 140.675781 C 233.515625 141.125 233.949219 141.59375 234.359375 142.085938 C 234.773438 142.574219 235.15625 143.085938 235.519531 143.613281 C 235.878906 144.140625 236.214844 144.6875 236.523438 145.25 C 236.828125 145.808594 237.109375 146.386719 237.359375 146.972656 C 237.609375 147.5625 237.832031 148.164062 238.023438 148.773438 C 238.214844 149.382812 238.378906 150.003906 238.507812 150.628906 C 238.640625 151.253906 238.742188 151.886719 238.808594 152.523438 C 238.878906 153.160156 238.917969 153.796875 238.925781 154.4375 C 238.929688 155.078125 238.90625 155.714844 238.851562 156.355469 C 238.792969 156.992188 238.707031 157.625 238.589844 158.253906 C 238.46875 158.882812 238.320312 159.503906 238.140625 160.121094 C 237.960938 160.734375 237.753906 161.335938 237.511719 161.933594 C 237.273438 162.527344 237.007812 163.105469 236.710938 163.675781 C 236.414062 164.242188 236.09375 164.792969 235.742188 165.328125 C 235.390625 165.863281 235.015625 166.382812 234.617188 166.882812 C 234.214844 167.378906 233.789062 167.859375 233.34375 168.316406 L 217.710938 184.273438 Z M 310.800781 222.558594 C 300.019531 233.554688 264.824219 222.699219 225.660156 191.320312 L 240.921875 175.738281 C 241.617188 175.035156 242.273438 174.296875 242.898438 173.527344 C 243.519531 172.757812 244.101562 171.960938 244.644531 171.132812 C 245.1875 170.304688 245.6875 169.453125 246.148438 168.578125 C 246.605469 167.703125 247.023438 166.804688 247.394531 165.886719 C 247.765625 164.96875 248.089844 164.039062 248.367188 163.089844 C 248.648438 162.140625 248.878906 161.179688 249.0625 160.207031 C 249.25 159.234375 249.386719 158.253906 249.472656 157.269531 C 249.5625 156.285156 249.601562 155.296875 249.59375 154.308594 C 249.582031 153.320312 249.527344 152.332031 249.421875 151.347656 C 249.316406 150.363281 249.160156 149.390625 248.957031 148.421875 C 248.757812 147.453125 248.507812 146.496094 248.210938 145.550781 C 247.914062 144.609375 247.574219 143.679688 247.1875 142.769531 C 246.796875 141.859375 246.367188 140.96875 245.894531 140.101562 C 245.417969 139.234375 244.902344 138.390625 244.34375 137.574219 C 243.785156 136.757812 243.1875 135.96875 242.554688 135.210938 C 241.917969 134.453125 241.246094 133.726562 240.539062 133.035156 C 239.835938 132.34375 239.09375 131.6875 238.324219 131.066406 C 237.550781 130.449219 236.753906 129.867188 235.925781 129.328125 C 235.09375 128.785156 234.242188 128.285156 233.363281 127.832031 C 232.488281 127.375 231.589844 126.960938 230.671875 126.59375 C 229.753906 126.222656 228.820312 125.902344 227.871094 125.625 C 226.917969 125.347656 225.957031 125.117188 224.984375 124.9375 C 224.011719 124.753906 223.035156 124.621094 222.050781 124.535156 C 221.0625 124.449219 220.074219 124.410156 219.085938 124.421875 C 218.097656 124.433594 217.109375 124.496094 216.128906 124.601562 C 215.144531 124.710938 214.167969 124.867188 213.199219 125.074219 C 212.234375 125.277344 211.277344 125.527344 210.332031 125.828125 C 209.390625 126.125 208.464844 126.46875 207.554688 126.859375 C 206.644531 127.25 205.757812 127.683594 204.890625 128.160156 C 204.023438 128.636719 203.183594 129.15625 202.367188 129.71875 C 201.550781 130.277344 200.765625 130.875 200.007812 131.511719 C 199.253906 132.148438 198.527344 132.824219 197.839844 133.53125 L 182.578125 149.109375 C 170.105469 134.195312 160.09375 119.109375 153.53125 105.128906 C 144.6875 86.285156 143.214844 71.148438 149.589844 64.636719 C 162.410156 51.550781 209.796875 69.394531 257.296875 115.925781 C 304.792969 162.457031 323.621094 209.472656 310.800781 222.558594 Z M 222.246094 17.691406 C 222.582031 17.777344 222.90625 17.894531 223.222656 18.046875 C 223.535156 18.199219 223.832031 18.378906 224.109375 18.585938 C 224.390625 18.796875 224.644531 19.03125 224.878906 19.289062 C 225.109375 19.546875 225.316406 19.828125 225.492188 20.128906 C 225.671875 20.429688 225.816406 20.742188 225.933594 21.070312 C 226.046875 21.398438 226.132812 21.734375 226.179688 22.082031 C 226.230469 22.425781 226.246094 22.773438 226.226562 23.121094 C 226.207031 23.46875 226.152344 23.8125 226.066406 24.148438 L 220.707031 45.066406 C 220.625 45.40625 220.507812 45.734375 220.359375 46.050781 C 220.207031 46.367188 220.03125 46.667969 219.820312 46.949219 C 219.613281 47.230469 219.378906 47.488281 219.121094 47.722656 C 218.859375 47.960938 218.578125 48.167969 218.28125 48.347656 C 217.980469 48.527344 217.664062 48.675781 217.332031 48.792969 C 217.003906 48.910156 216.664062 48.992188 216.320312 49.042969 C 215.972656 49.09375 215.625 49.109375 215.273438 49.089844 C 214.925781 49.070312 214.578125 49.019531 214.242188 48.933594 C 213.902344 48.84375 213.574219 48.726562 213.257812 48.574219 C 212.941406 48.421875 212.644531 48.242188 212.363281 48.03125 C 212.085938 47.820312 211.828125 47.582031 211.597656 47.320312 C 211.363281 47.0625 211.15625 46.777344 210.980469 46.476562 C 210.804688 46.175781 210.65625 45.859375 210.542969 45.527344 C 210.429688 45.195312 210.347656 44.855469 210.300781 44.511719 C 210.253906 44.164062 210.238281 43.816406 210.261719 43.464844 C 210.28125 43.117188 210.339844 42.773438 210.429688 42.433594 L 215.789062 21.515625 C 215.875 21.175781 215.992188 20.851562 216.144531 20.535156 C 216.292969 20.222656 216.472656 19.925781 216.683594 19.648438 C 216.890625 19.367188 217.125 19.113281 217.386719 18.882812 C 217.644531 18.648438 217.925781 18.441406 218.222656 18.265625 C 218.523438 18.089844 218.839844 17.941406 219.167969 17.824219 C 219.496094 17.710938 219.832031 17.628906 220.175781 17.578125 C 220.523438 17.53125 220.867188 17.515625 221.214844 17.535156 C 221.5625 17.550781 221.90625 17.605469 222.246094 17.691406 Z M 315.355469 49.3125 L 284.117188 89.269531 C 283.902344 89.542969 283.664062 89.792969 283.398438 90.019531 C 283.132812 90.246094 282.851562 90.445312 282.546875 90.617188 C 282.242188 90.785156 281.925781 90.925781 281.597656 91.035156 C 281.265625 91.144531 280.925781 91.21875 280.582031 91.261719 C 280.238281 91.300781 279.890625 91.308594 279.542969 91.285156 C 279.195312 91.257812 278.855469 91.199219 278.519531 91.105469 C 278.183594 91.011719 277.863281 90.886719 277.550781 90.730469 C 277.242188 90.574219 276.949219 90.386719 276.675781 90.171875 C 276.398438 89.957031 276.148438 89.71875 275.921875 89.457031 C 275.695312 89.191406 275.496094 88.910156 275.324219 88.605469 C 275.152344 88.304688 275.011719 87.988281 274.902344 87.65625 C 274.792969 87.324219 274.71875 86.988281 274.675781 86.640625 C 274.632812 86.296875 274.625 85.949219 274.652344 85.605469 C 274.675781 85.257812 274.734375 84.914062 274.828125 84.578125 C 274.921875 84.246094 275.046875 83.921875 275.203125 83.609375 C 275.359375 83.300781 275.542969 83.007812 275.757812 82.730469 L 306.996094 42.777344 C 307.210938 42.5 307.449219 42.25 307.714844 42.023438 C 307.976562 41.792969 308.261719 41.59375 308.566406 41.421875 C 308.867188 41.25 309.1875 41.109375 309.515625 41 C 309.847656 40.890625 310.1875 40.8125 310.535156 40.769531 C 310.878906 40.726562 311.226562 40.71875 311.574219 40.746094 C 311.921875 40.769531 312.265625 40.832031 312.601562 40.925781 C 312.9375 41.015625 313.261719 41.140625 313.570312 41.300781 C 313.882812 41.457031 314.175781 41.640625 314.453125 41.855469 C 314.726562 42.070312 314.976562 42.3125 315.203125 42.578125 C 315.433594 42.839844 315.632812 43.125 315.804688 43.429688 C 315.976562 43.730469 316.117188 44.050781 316.222656 44.382812 C 316.332031 44.710938 316.410156 45.050781 316.449219 45.398438 C 316.492188 45.746094 316.5 46.089844 316.472656 46.4375 C 316.449219 46.785156 316.386719 47.128906 316.292969 47.464844 C 316.199219 47.800781 316.074219 48.125 315.917969 48.4375 C 315.757812 48.746094 315.570312 49.039062 315.355469 49.3125 Z M 351.457031 145.042969 C 351.445312 145.390625 351.402344 145.734375 351.324219 146.074219 C 351.246094 146.414062 351.136719 146.742188 350.992188 147.0625 C 350.851562 147.378906 350.675781 147.679688 350.476562 147.964844 C 350.273438 148.25 350.046875 148.507812 349.792969 148.75 C 349.539062 148.988281 349.265625 149.199219 348.96875 149.386719 C 348.675781 149.570312 348.363281 149.722656 348.039062 149.847656 C 347.714844 149.972656 347.378906 150.0625 347.035156 150.121094 C 346.691406 150.179688 346.34375 150.203125 345.996094 150.191406 L 322.285156 149.507812 C 321.933594 149.503906 321.585938 149.464844 321.238281 149.394531 C 320.894531 149.320312 320.558594 149.214844 320.234375 149.074219 C 319.910156 148.933594 319.605469 148.765625 319.3125 148.5625 C 319.023438 148.363281 318.757812 148.136719 318.511719 147.882812 C 318.265625 147.628906 318.050781 147.351562 317.859375 147.054688 C 317.667969 146.757812 317.511719 146.441406 317.382812 146.113281 C 317.257812 145.785156 317.164062 145.445312 317.105469 145.097656 C 317.042969 144.75 317.019531 144.402344 317.027344 144.046875 C 317.039062 143.695312 317.085938 143.347656 317.164062 143.003906 C 317.242188 142.660156 317.355469 142.328125 317.503906 142.003906 C 317.648438 141.683594 317.824219 141.378906 318.03125 141.09375 C 318.238281 140.808594 318.46875 140.546875 318.730469 140.304688 C 318.988281 140.066406 319.269531 139.855469 319.570312 139.671875 C 319.871094 139.488281 320.1875 139.335938 320.519531 139.214844 C 320.851562 139.09375 321.191406 139.007812 321.539062 138.953125 C 321.890625 138.902344 322.238281 138.882812 322.59375 138.902344 L 346.304688 139.585938 C 346.65625 139.597656 347 139.640625 347.339844 139.71875 C 347.675781 139.796875 348.007812 139.90625 348.324219 140.050781 C 348.640625 140.191406 348.941406 140.363281 349.226562 140.566406 C 349.511719 140.769531 349.773438 140.996094 350.011719 141.25 C 350.25 141.503906 350.460938 141.777344 350.648438 142.070312 C 350.832031 142.367188 350.984375 142.675781 351.109375 143.003906 C 351.234375 143.328125 351.324219 143.664062 351.382812 144.007812 C 351.441406 144.351562 351.464844 144.695312 351.457031 145.042969 Z M 351.457031 145.042969 " fill-opacity="1" fill-rule="nonzero"></path></g></g></g></svg>