<svg xmlns="http://www.w3.org/2000/svg" xmlns:xlink="http://www.w3.org/1999/xlink" width="500" zoomAndPan="magnify" viewBox="0 0 375 374.999991" height="500" preserveAspectRatio="xMidYMid meet"><defs><clipPath id="4c90498f9b"><path d="M 21.285156 37.5 L 134 37.5 L 134 151 L 21.285156 151 Z M 21.285156 37.5 " clip-rule="nonzero"></path></clipPath><clipPath id="8768774d86"><path d="M 241 37.5 L 353.535156 37.5 L 353.535156 151 L 241 151 Z M 241 37.5 " clip-rule="nonzero"></path></clipPath><clipPath id="4cf697eca9"><path d="M 241 224 L 353.535156 224 L 353.535156 337.5 L 241 337.5 Z M 241 224 " clip-rule="nonzero"></path></clipPath><clipPath id="47d478bd53"><path d="M 21.285156 224 L 134 224 L 134 337.5 L 21.285156 337.5 Z M 21.285156 224 " clip-rule="nonzero"></path></clipPath></defs><g clip-path="url(#4c90498f9b)"><path fill="#ffffff" d="M 36.160156 150.644531 C 44.347656 150.644531 50.957031 144.03125 50.957031 135.847656 L 50.957031 84.75 C 50.957031 74.992188 58.894531 67.089844 68.617188 67.089844 L 118.875 67.089844 C 127.0625 67.089844 133.671875 60.476562 133.671875 52.292969 C 133.671875 44.109375 127.0625 37.5 118.875 37.5 L 68.617188 37.5 C 42.5625 37.5 21.367188 58.695312 21.367188 84.75 L 21.367188 135.847656 C 21.367188 143.996094 27.976562 150.644531 36.160156 150.644531 Z M 36.160156 150.644531 " fill-opacity="1" fill-rule="nonzero"></path></g><g clip-path="url(#8768774d86)"><path fill="#ffffff" d="M 306.375 37.5 L 256.152344 37.5 C 247.96875 37.5 241.359375 44.109375 241.359375 52.292969 C 241.359375 60.476562 247.96875 67.089844 256.152344 67.089844 L 306.375 67.089844 C 316.132812 67.089844 324.039062 75.027344 324.039062 84.75 L 324.039062 135.847656 C 324.039062 144.03125 330.648438 150.644531 338.832031 150.644531 C 347.015625 150.644531 353.625 144.03125 353.625 135.847656 L 353.625 84.75 C 353.625 58.695312 332.429688 37.5 306.375 37.5 Z M 306.375 37.5 " fill-opacity="1" fill-rule="nonzero"></path></g><g clip-path="url(#4cf697eca9)"><path fill="#ffffff" d="M 338.832031 224.367188 C 330.648438 224.367188 324.039062 230.980469 324.039062 239.164062 L 324.039062 290.261719 C 324.039062 299.984375 316.097656 307.921875 306.375 307.921875 L 256.152344 307.921875 C 247.96875 307.921875 241.359375 314.535156 241.359375 322.71875 C 241.359375 330.902344 247.96875 337.511719 256.152344 337.511719 L 306.375 337.511719 C 332.429688 337.511719 353.625 316.316406 353.625 290.261719 L 353.625 239.164062 C 353.625 231.015625 347.015625 224.367188 338.832031 224.367188 Z M 338.832031 224.367188 " fill-opacity="1" fill-rule="nonzero"></path></g><g clip-path="url(#47d478bd53)"><path fill="#ffffff" d="M 118.839844 307.921875 L 68.617188 307.921875 C 58.894531 307.921875 50.957031 299.984375 50.957031 290.261719 L 50.957031 239.164062 C 50.957031 231.015625 44.347656 224.367188 36.160156 224.367188 C 27.976562 224.367188 21.367188 231.015625 21.367188 239.164062 L 21.367188 290.261719 C 21.367188 316.316406 42.5625 337.511719 68.617188 337.511719 L 118.875 337.511719 C 127.0625 337.511719 133.671875 330.902344 133.671875 322.71875 C 133.636719 314.535156 127.027344 307.921875 118.839844 307.921875 Z M 118.839844 307.921875 " fill-opacity="1" fill-rule="nonzero"></path></g><path fill="#ffffff" d="M 187.496094 218.808594 C 202.78125 218.808594 215.195312 206.355469 215.195312 191.074219 C 215.195312 175.789062 202.78125 163.375 187.496094 163.375 C 172.210938 163.375 159.796875 175.789062 159.796875 191.074219 C 159.796875 206.355469 172.210938 218.808594 187.496094 218.808594 Z M 187.496094 218.808594 " fill-opacity="1" fill-rule="nonzero"></path><path fill="#ffffff" d="M 110.308594 129.238281 C 98.730469 129.238281 89.359375 138.613281 89.359375 150.1875 L 89.359375 239.40625 C 89.359375 250.984375 98.730469 260.359375 110.308594 260.359375 L 264.652344 260.359375 C 276.226562 260.359375 285.601562 250.984375 285.601562 239.40625 L 285.601562 150.152344 C 285.601562 138.578125 276.226562 129.203125 264.652344 129.203125 L 241.496094 129.203125 C 237.371094 129.203125 233.558594 127.105469 231.320312 123.605469 L 226.039062 115.285156 C 222.578125 109.828125 216.5625 106.539062 210.125 106.539062 L 164.867188 106.539062 C 158.398438 106.539062 152.382812 109.828125 148.917969 115.285156 L 143.636719 123.605469 C 141.433594 127.070312 137.589844 129.203125 133.460938 129.203125 L 110.308594 129.203125 Z M 187.496094 143.753906 C 213.585938 143.753906 234.816406 164.980469 234.816406 191.074219 C 234.816406 217.164062 213.585938 238.394531 187.496094 238.394531 C 161.40625 238.394531 140.140625 217.164062 140.140625 191.074219 C 140.140625 164.980469 161.40625 143.753906 187.496094 143.753906 Z M 187.496094 143.753906 " fill-opacity="1" fill-rule="nonzero"></path></svg>