<svg xmlns="http://www.w3.org/2000/svg" id="Livello_2" data-name="Livello 2" viewBox="0 0 5348.13 973.41"><defs><style>      .cls-1 {        fill: #003376;      }      .cls-2 {        fill: #ffdcc0;      }    </style></defs><g id="Livello_1-2" data-name="Livello 1"><g><g><path class="cls-2" d="M785.72,602.16c4.26-5.05,6.83-11.56,6.83-18.68s-2.73-13.99-7.21-19.1c12.49-3.25,21.72-14.56,21.72-28.06,0-12.46-7.87-23.05-18.9-27.17,4.95-5.21,8.02-12.23,8.02-19.98,0-7.12-2.58-13.63-6.83-18.68,8.43-5.08,14.08-14.29,14.08-24.85,0-14.93-11.29-27.22-25.79-28.83,2.54-4.31,4.03-9.33,4.03-14.7,0-8.68-3.83-16.45-9.87-21.76,6.04-5.32,9.87-13.08,9.87-21.76,0-10.55-5.65-19.77-14.08-24.85,4.25-5.05,6.83-11.56,6.83-18.68,0-16.03-12.99-29.02-29.02-29.02-.08,0-.17.01-.25.01.15-1.2.25-2.4.25-3.64,0-9.09-4.18-17.19-10.72-22.51,2.21-4.09,3.47-8.78,3.47-13.76,0-14.34-10.4-26.21-24.06-28.57,1.48-3.48,2.3-7.31,2.3-11.33,0-16.03-12.99-29.02-29.02-29.02-5.3,0-10.25,1.44-14.52,3.92,0-.1.02-.19.02-.29,0-16.03-12.99-29.02-29.02-29.02-.08,0-.17.01-.25.01.15-1.2.25-2.41.25-3.64,0-16.03-12.99-29.02-29.02-29.02-9.19,0-17.38,4.29-22.69,10.96-3.2-12.55-14.54-21.84-28.09-21.84-4.98,0-9.66,1.26-13.76,3.47-5.32-6.54-13.42-10.72-22.51-10.72s-16.52,3.86-21.84,9.95c-4.96-3.95-11.23-6.33-18.06-6.33-16.03,0-29.02,12.99-29.02,29.02-13.71,0-25.16,9.52-28.2,22.29-.58.36-1.16.73-1.74,1.06-5.27-5.45-12.65-8.85-20.83-8.85-7.02,0-13.46,2.49-18.48,6.64-2.06-14.01-14.09-24.78-28.67-24.78-.08,0-.16.01-.25.01-1.78-14.31-13.97-25.4-28.77-25.4-7.95,0-15.14,3.2-20.38,8.38-4.57-3-10.02-4.75-15.89-4.75-8.68,0-16.45,3.83-21.76,9.87-5.32-6.04-13.08-9.87-21.76-9.87-13.55,0-24.89,9.29-28.09,21.84-5.32-6.67-13.5-10.96-22.69-10.96-16.02,0-29.02,12.99-29.02,29.02,0,1.24.1,2.44.25,3.64-.08,0-.17-.01-.25-.01-16.03,0-29.02,12.99-29.02,29.02,0,.1.01.19.01.29-4.28-2.48-9.23-3.92-14.52-3.92-16.03,0-29.02,12.99-29.02,29.02,0,4.02.82,7.85,2.3,11.33-13.66,2.36-24.06,14.23-24.06,28.57,0,4.98,1.26,9.67,3.47,13.76-6.54,5.32-10.72,13.42-10.72,22.51,0,1.24.1,2.44.25,3.64-.08,0-.17-.01-.25-.01-16.03,0-29.02,12.99-29.02,29.02,0,7.12,2.58,13.63,6.83,18.68-8.43,5.08-14.08,14.29-14.08,24.85,0,8.68,3.83,16.45,9.87,21.76-6.04,5.32-9.87,13.08-9.87,21.76,0,5.3,1.44,10.26,3.93,14.53-.01.06-.02.12-.03.19-14.44,1.66-25.67,13.92-25.67,28.81,0,10.55,5.65,19.77,14.08,24.85-4.25,5.05-6.83,11.56-6.83,18.68,0,7.76,3.06,14.78,8.02,19.98-11.03,4.11-18.9,14.7-18.9,27.17,0,13.5,9.23,24.81,21.72,28.06-4.47,5.11-7.21,11.78-7.21,19.1s2.58,13.63,6.83,18.68c-8.43,5.08-14.08,14.29-14.08,24.85,0,15.13,11.59,27.55,26.38,28.88-.62,2.36-.99,4.83-.99,7.39,0,7.12,2.58,13.63,6.83,18.68-8.43,5.08-14.08,14.29-14.08,24.85,0,13.92,9.81,25.54,22.88,28.35-.72,2.52-1.12,5.17-1.12,7.92,0,16.03,12.99,29.02,29.02,29.02,1.6,0,3.16-.16,4.69-.41-.67,2.44-1.06,5.01-1.06,7.67,0,13.79,9.62,25.3,22.51,28.26-2.76,4.44-4.37,9.66-4.37,15.27,0,16.02,12.99,29.02,29.02,29.02,1.53,0,3.01-.15,4.48-.38,3.09,12.7,14.51,22.14,28.17,22.14,1.24,0,2.44-.1,3.64-.25,0,.08-.02.17-.02.25,0,16.02,12.99,29.02,29.02,29.02,2.53,0,4.97-.36,7.3-.96-.01.32-.05.64-.05.96,0,16.02,12.99,29.02,29.02,29.02,8.31,0,15.78-3.51,21.07-9.11,4.7,9.67,14.6,16.36,26.08,16.36,3.59,0,7.01-.68,10.18-1.87,4.7,9.68,14.6,16.38,26.09,16.38,6.5,0,12.47-2.16,17.31-5.76,4.65,9.83,14.63,16.64,26.22,16.64,8.72,0,16.52-3.86,21.84-9.95,4.96,3.95,11.23,6.33,18.06,6.33,1.23,0,2.44-.1,3.63-.25,1.19.15,2.4.25,3.63.25,6.83,0,13.1-2.38,18.06-6.33,5.32,6.09,13.12,9.95,21.84,9.95,11.6,0,21.57-6.82,26.22-16.64,4.84,3.6,10.81,5.76,17.31,5.76,11.49,0,21.39-6.7,26.09-16.38,3.17,1.19,6.59,1.87,10.18,1.87,11.48,0,21.38-6.69,26.08-16.36,5.29,5.6,12.76,9.11,21.07,9.11,16.03,0,29.02-12.99,29.02-29.02,0-.33-.04-.64-.05-.96,2.34.61,4.78.96,7.3.96,16.03,0,29.02-12.99,29.02-29.02,0-.08-.01-.17-.02-.25,1.19.15,2.4.25,3.64.25,13.65,0,25.07-9.44,28.16-22.14,1.47.23,2.95.38,4.48.38,16.02,0,29.02-12.99,29.02-29.02,0-5.61-1.62-10.83-4.37-15.27,12.89-2.96,22.51-14.47,22.51-28.26,0-2.66-.39-5.22-1.06-7.67,1.53.25,3.09.41,4.68.41,16.03,0,29.02-12.99,29.02-29.02,0-2.75-.41-5.4-1.12-7.92,13.08-2.81,22.88-14.44,22.88-28.35,0-10.56-5.65-19.77-14.08-24.85,4.25-5.05,6.83-11.56,6.83-18.68,0-2.56-.36-5.02-.99-7.39,14.78-1.34,26.38-13.75,26.38-28.88,0-10.56-5.66-19.77-14.09-24.85Z"></path><path class="cls-1" d="M451.59,973.41c-8.31,0-16.32-2.73-22.87-7.66-5.26,2.63-11.11,4.04-17.03,4.04-1.15,0-2.35-.06-3.63-.19-1.28.13-2.48.19-3.63.19-5.92,0-11.76-1.41-17.03-4.04-6.55,4.93-14.56,7.66-22.87,7.66-11.37,0-22.05-5.17-29.2-13.69-4.52,1.85-9.36,2.8-14.33,2.8-12.11,0-23.16-5.6-30.27-14.99-1.99.32-3.99.48-6,.48-10.94,0-21-4.56-28.09-12.36-5.72,3.33-12.24,5.11-19.06,5.11-17.88,0-32.92-12.38-37-29.02-17.65-.33-32.4-12.73-36.33-29.26-13.14-1.51-24.44-9.72-30.01-21.55-20.18-.93-36.31-17.64-36.31-38.04,0-3.49.48-6.95,1.42-10.28-4.25-2.37-8.04-5.54-11.12-9.36-5.14-6.36-8.1-14.29-8.41-22.46-18.44-2.64-32.67-18.54-32.67-37.7,0-.62.02-1.24.05-1.85-5.08-2.41-9.62-5.94-13.22-10.34-5.54-6.77-8.59-15.32-8.59-24.08,0-10.28,4.03-19.83,11.1-26.87-2.51-5.16-3.85-10.86-3.85-16.66,0-.12,0-.25,0-.37-5.82-2.05-11.1-5.51-15.36-10.15-6.47-7.04-10.03-16.19-10.03-25.75,0-10.28,4.04-19.83,11.1-26.87-2.51-5.16-3.85-10.86-3.85-16.66,0-5.22,1.08-10.33,3.12-15.05-10.75-6.85-17.62-18.83-17.62-32.1,0-11.95,5.7-23.06,14.89-30.16-2.62-5.23-4.01-11.02-4.01-17s1.34-11.5,3.85-16.66c-7.07-7.04-11.1-16.59-11.1-26.87,0-15.46,9.25-28.95,22.77-34.87-.66-2.83-1-5.73-1-8.66,0-7.84,2.44-15.43,6.86-21.76-4.42-6.33-6.86-13.92-6.86-21.76,0-10.28,4.03-19.83,11.1-26.87-2.51-5.16-3.85-10.86-3.85-16.66,0-17.97,12.51-33.07,29.27-37.06.87-7.51,3.93-14.53,8.81-20.25-1.2-3.74-1.81-7.67-1.81-11.61,0-15.19,8.88-28.5,22.13-34.58-.24-1.75-.37-3.53-.37-5.32,0-21,17.09-38.08,38.09-38.08,2.48,0,4.95.25,7.37.73,4.12-12.42,14.48-22.03,27.34-25.09,2.19-18.93,18.32-33.67,37.83-33.67,7.01,0,13.74,1.9,19.57,5.4,6.96-9.98,18.49-16.28,31.21-16.28,7.84,0,15.43,2.44,21.76,6.86,6.34-4.42,13.92-6.86,21.76-6.86,5.12,0,10.14,1.03,14.8,3,6.28-4.31,13.71-6.63,21.47-6.63,16.62,0,31.04,10.79,36.12,26.06,6.59,1.25,12.78,4.24,17.9,8.71,3.63,3.17,6.6,6.98,8.78,11.19,4.25-1.59,8.78-2.43,13.37-2.43,6.34,0,12.43,1.53,17.85,4.43,5.32-9.2,14.27-15.78,24.74-18.06,3.76-17.08,19.01-29.89,37.2-29.89,5.92,0,11.76,1.41,17.02,4.04,6.55-4.93,14.56-7.66,22.87-7.66,9.15,0,17.83,3.24,24.66,9.07,3.74-1.19,7.66-1.81,11.61-1.81,12.73,0,24.25,6.3,31.21,16.28,5.83-3.5,12.55-5.4,19.57-5.4,19.51,0,35.64,14.74,37.83,33.67,12.87,3.06,23.22,12.67,27.35,25.09,2.42-.48,4.89-.73,7.37-.73,21,0,38.09,17.08,38.09,38.08,0,1.79-.12,3.57-.37,5.32,13.25,6.08,22.13,19.39,22.13,34.58,0,3.95-.62,7.87-1.81,11.61,4.88,5.72,7.95,12.74,8.81,20.25,16.76,3.99,29.27,19.09,29.27,37.06,0,5.8-1.34,11.5-3.85,16.66,7.07,7.04,11.1,16.59,11.1,26.87,0,7.84-2.44,15.43-6.86,21.76,4.42,6.34,6.86,13.92,6.86,21.76,0,2.92-.34,5.82-1.01,8.64,13.52,5.92,22.77,19.39,22.77,34.88,0,10.28-4.03,19.83-11.1,26.87,2.51,5.16,3.85,10.86,3.85,16.66s-1.39,11.77-4.01,17c9.19,7.1,14.89,18.21,14.89,30.16,0,13.26-6.87,25.25-17.62,32.1,2.04,4.72,3.12,9.84,3.12,15.05,0,5.8-1.34,11.5-3.85,16.66,7.07,7.04,11.1,16.58,11.1,26.87,0,9.57-3.56,18.71-10.04,25.75-4.26,4.63-9.54,8.09-15.36,10.15,0,.12,0,.25,0,.37,0,5.8-1.34,11.5-3.85,16.66,7.07,7.04,11.1,16.59,11.1,26.87,0,8.76-3.05,17.31-8.59,24.08-3.6,4.4-8.14,7.93-13.22,10.34.03.62.05,1.24.05,1.85,0,19.16-14.23,35.07-32.67,37.7-.31,8.17-3.27,16.1-8.41,22.46-3.08,3.82-6.88,6.99-11.12,9.36.94,3.33,1.42,6.79,1.42,10.28,0,20.41-16.13,37.12-36.31,38.04-5.56,11.83-16.86,20.04-30.01,21.55-3.93,16.54-18.68,28.93-36.33,29.26-4.08,16.64-19.12,29.02-37,29.02-6.82,0-13.34-1.77-19.06-5.11-7.09,7.8-17.15,12.36-28.09,12.36-2.01,0-4.02-.16-6-.48-7.11,9.39-18.16,14.99-30.27,14.99-4.98,0-9.82-.96-14.33-2.8-7.15,8.52-17.83,13.69-29.19,13.69ZM429.75,945.32c2.53,0,5.05,1.06,6.83,3.1,3.8,4.35,9.28,6.85,15.01,6.85,7.66,0,14.73-4.5,18.02-11.46,1.16-2.46,3.37-4.26,6-4.92,2.64-.66,5.43-.1,7.61,1.53,3.48,2.59,7.59,3.96,11.89,3.96,7.69,0,14.56-4.32,17.93-11.27,2.05-4.21,6.96-6.18,11.35-4.53,2.28.86,4.64,1.29,6.99,1.29,7.68,0,14.55-4.31,17.93-11.26,1.3-2.68,3.84-4.55,6.78-5,2.95-.45,5.92.57,7.97,2.74,3.82,4.04,8.96,6.27,14.48,6.27,10.96,0,19.89-8.88,19.95-19.83v-.05c-.02-.25-.04-.49-.04-.74-.09-2.86,1.17-5.59,3.4-7.38,2.23-1.78,5.18-2.41,7.94-1.69,1.72.45,3.4.67,5.02.67,10.92,0,19.81-8.81,19.95-19.7,0-.07,0-.15,0-.22-.08-2.65,1-5.21,2.96-6.99,1.96-1.78,4.61-2.62,7.24-2.29.98.12,1.77.18,2.5.18,9.21,0,17.17-6.26,19.35-15.22,1.11-4.58,5.55-7.54,10.21-6.82,1.19.19,2.17.27,3.09.27,11,0,19.95-8.95,19.95-19.95,0-3.69-1.04-7.31-3.01-10.48-1.54-2.49-1.79-5.57-.67-8.27,1.13-2.7,3.49-4.7,6.34-5.35,9.11-2.09,15.47-10.08,15.47-19.42,0-1.72-.25-3.49-.74-5.27-.82-2.98-.06-6.17,2.01-8.46,2.07-2.3,5.16-3.38,8.21-2.88,1.19.2,2.24.29,3.21.29,11,0,19.95-8.95,19.95-19.95,0-1.79-.26-3.62-.78-5.45-.68-2.41-.34-5,.96-7.14,1.29-2.15,3.41-3.66,5.86-4.19,9.11-1.96,15.72-10.16,15.72-19.49,0-7.04-3.62-13.42-9.69-17.08-2.27-1.37-3.83-3.67-4.27-6.28-.43-2.62.3-5.3,2.01-7.33,3.03-3.6,4.7-8.16,4.7-12.84,0-1.67-.22-3.33-.69-5.08-.68-2.58-.19-5.33,1.34-7.52,1.53-2.19,3.95-3.58,6.61-3.83,10.33-.94,18.13-9.47,18.13-19.85,0-7.04-3.62-13.42-9.69-17.08-2.27-1.37-3.84-3.67-4.27-6.29-.43-2.62.3-5.3,2.01-7.33,3.03-3.59,4.7-8.15,4.7-12.84s-1.76-9.47-4.96-13.12c-2.07-2.37-2.77-5.64-1.85-8.64.92-3.01,3.34-5.32,6.39-6.11,8.79-2.29,14.93-10.21,14.93-19.28,0-8.27-5.22-15.77-13-18.67-2.85-1.06-4.98-3.49-5.67-6.46-.68-2.97.17-6.08,2.27-8.29,3.56-3.74,5.52-8.62,5.52-13.73,0-4.75-1.62-9.19-4.7-12.84-1.71-2.03-2.45-4.71-2.01-7.33.43-2.62,1.99-4.92,4.27-6.29,6.07-3.66,9.69-10.04,9.69-17.08,0-10.18-7.62-18.7-17.72-19.82-3.06-.34-5.74-2.2-7.11-4.96-1.38-2.75-1.26-6.01.3-8.66,1.81-3.08,2.77-6.57,2.77-10.09,0-5.71-2.48-11.16-6.79-14.96-1.96-1.72-3.08-4.2-3.08-6.81,0-2.61,1.12-5.08,3.08-6.81,4.32-3.8,6.79-9.25,6.79-14.96,0-7.04-3.62-13.42-9.69-17.08-2.27-1.37-3.83-3.67-4.27-6.28-.43-2.62.3-5.3,2.01-7.33,3.03-3.59,4.7-8.15,4.7-12.84,0-10.94-8.85-19.85-19.77-19.95-.14,0-.29,0-.43,0-2.6,0-5.08-1.12-6.8-3.07-1.72-1.95-2.52-4.54-2.2-7.12.13-1.01.18-1.81.18-2.52,0-6.02-2.69-11.66-7.38-15.48-3.38-2.75-4.33-7.51-2.26-11.35,1.58-2.92,2.38-6.1,2.38-9.45,0-9.72-6.95-17.98-16.54-19.63-2.73-.47-5.1-2.16-6.42-4.6-1.33-2.43-1.47-5.34-.38-7.89,1.05-2.46,1.58-5.08,1.58-7.79,0-11-8.95-19.95-19.95-19.95-3.53,0-6.89.91-9.98,2.7-2.81,1.62-6.26,1.63-9.07,0-2.81-1.62-4.54-4.61-4.54-7.86,0-.2,0-.38.01-.53-.13-10.82-8.91-19.59-19.73-19.71-.16,0-.32.01-.48.01-2.6,0-5.07-1.12-6.8-3.06-1.72-1.95-2.52-4.54-2.2-7.12.13-1.01.18-1.81.18-2.52,0-11-8.95-19.95-19.95-19.95-6.09,0-11.78,2.75-15.6,7.54-2.15,2.69-5.63,3.94-9,3.22-3.37-.72-6.03-3.29-6.88-6.63-2.25-8.84-10.19-15.01-19.3-15.01-3.35,0-6.53.8-9.45,2.38-3.83,2.07-8.59,1.12-11.34-2.26-3.81-4.69-9.46-7.38-15.48-7.38s-11.21,2.5-15.01,6.85c-3.19,3.65-8.69,4.15-12.48,1.13-3.57-2.85-7.86-4.35-12.41-4.35-11,0-19.95,8.95-19.95,19.95,0,5.01-4.06,9.07-9.07,9.07-9.27,0-17.23,6.3-19.38,15.32-.55,2.33-2.01,4.35-4.05,5.61l-.31.19c-.5.31-1.08.67-1.69,1.02-3.6,2.07-8.15,1.43-11.03-1.55-3.8-3.92-8.88-6.08-14.32-6.08-4.7,0-9.09,1.58-12.7,4.57-2.52,2.09-5.98,2.65-9.03,1.48-3.06-1.18-5.24-3.91-5.72-7.15-1.42-9.65-9.79-16.94-19.52-17.03-.14,0-.29,0-.43,0-4.57,0-8.43-3.41-9-7.95-1.24-9.95-9.74-17.45-19.77-17.45-5.27,0-10.25,2.05-14.01,5.76-3.04,3.01-7.77,3.48-11.35,1.13-3.25-2.14-7.03-3.26-10.91-3.26-5.7,0-11.16,2.48-14.96,6.79-1.72,1.95-4.2,3.07-6.81,3.07h0c-2.61,0-5.08-1.12-6.81-3.08-3.8-4.32-9.25-6.79-14.96-6.79-9.11,0-17.05,6.17-19.3,15.01-.85,3.34-3.52,5.9-6.88,6.63-3.37.72-6.85-.52-9-3.22-3.82-4.79-9.51-7.54-15.6-7.54-11,0-19.95,8.95-19.95,19.95,0,.72.06,1.52.18,2.5.33,2.58-.47,5.18-2.19,7.14-1.72,1.95-4.2,3.07-6.8,3.07-.16,0-.32,0-.47-.01-10.83.12-19.62,8.92-19.73,19.75,0,.17.01.33.01.49,0,3.24-1.73,6.24-4.54,7.86-2.81,1.62-6.27,1.61-9.08-.01-3.04-1.76-6.49-2.7-9.97-2.7-11,0-19.95,8.95-19.95,19.95,0,2.71.53,5.33,1.58,7.79,1.08,2.55.94,5.45-.38,7.89-1.33,2.43-3.69,4.13-6.42,4.6-9.58,1.65-16.54,9.91-16.54,19.63,0,3.35.8,6.53,2.38,9.46,2.07,3.83,1.12,8.59-2.26,11.34-4.69,3.82-7.38,9.46-7.38,15.48,0,.73.06,1.54.18,2.48.33,2.59-.46,5.19-2.18,7.15-1.72,1.96-4.2,3.08-6.81,3.08-.15,0-.29,0-.43,0-10.92.1-19.77,9.01-19.77,19.95,0,4.75,1.62,9.19,4.7,12.84,1.71,2.03,2.45,4.71,2.01,7.33-.43,2.62-1.99,4.92-4.27,6.29-6.07,3.66-9.69,10.04-9.69,17.08,0,5.7,2.48,11.16,6.79,14.96,1.96,1.72,3.08,4.2,3.08,6.81,0,2.61-1.12,5.08-3.08,6.81-4.32,3.8-6.79,9.25-6.79,14.96,0,3.49.93,6.94,2.7,9.98,1.03,1.78,1.43,3.86,1.13,5.89-.54,4.12-3.82,7.39-7.96,7.86-10.05,1.16-17.63,9.67-17.63,19.8,0,7.04,3.62,13.42,9.69,17.08,2.27,1.37,3.83,3.67,4.27,6.28.43,2.62-.3,5.3-2.01,7.33-3.03,3.59-4.7,8.15-4.7,12.84,0,5.12,1.96,10,5.52,13.73,2.1,2.21,2.95,5.32,2.27,8.29-.68,2.97-2.81,5.4-5.67,6.46-7.77,2.9-13,10.4-13,18.67,0,9.07,6.14,17,14.93,19.28,3.05.79,5.46,3.1,6.39,6.11.93,3.01.23,6.28-1.85,8.64-3.2,3.65-4.96,8.31-4.96,13.12s1.62,9.19,4.7,12.84c1.71,2.03,2.44,4.71,2.01,7.33-.43,2.62-1.99,4.92-4.27,6.28-6.07,3.66-9.69,10.04-9.69,17.08,0,10.39,7.79,18.92,18.12,19.85,2.66.24,5.08,1.64,6.61,3.82s2.03,4.93,1.35,7.52c-.46,1.74-.69,3.45-.69,5.08,0,4.75,1.62,9.19,4.7,12.84,1.71,2.03,2.45,4.71,2.01,7.33-.43,2.62-1.99,4.92-4.27,6.28-6.07,3.66-9.69,10.04-9.69,17.08,0,9.33,6.61,17.53,15.72,19.49,2.45.53,4.57,2.05,5.87,4.19,1.29,2.15,1.63,4.74.95,7.15-.51,1.81-.78,3.64-.78,5.44,0,11,8.95,19.95,19.95,19.95.96,0,2.02-.1,3.22-.29,3.05-.5,6.14.59,8.21,2.88s2.82,5.49,2,8.47c-.49,1.77-.74,3.55-.74,5.26,0,9.34,6.36,17.33,15.47,19.42,2.85.66,5.22,2.65,6.34,5.35,1.13,2.7.88,5.78-.67,8.27-1.97,3.17-3.01,6.79-3.01,10.48,0,11,8.95,19.95,19.95,19.95.9,0,1.91-.09,3.08-.27,4.66-.73,9.09,2.24,10.21,6.81,2.18,8.96,10.14,15.22,19.35,15.22.73,0,1.52-.06,2.5-.18,2.58-.33,5.18.47,7.13,2.19s3.07,4.2,3.07,6.8c0,.19,0,.36-.01.52.14,10.88,9.04,19.69,19.95,19.69,1.64,0,3.28-.22,5.02-.67,2.77-.72,5.71-.09,7.94,1.69,2.23,1.78,3.5,4.52,3.41,7.37,0,.24-.02.47-.04.71v.08c.05,10.95,8.98,19.84,19.94,19.84,5.52,0,10.66-2.23,14.48-6.27,2.05-2.16,5.02-3.19,7.97-2.73,2.94.45,5.48,2.32,6.78,5,3.38,6.94,10.24,11.26,17.93,11.26,2.35,0,4.71-.44,7-1.3,4.38-1.65,9.3.32,11.34,4.53,3.37,6.95,10.24,11.27,17.93,11.27,4.29,0,8.41-1.37,11.89-3.97,2.18-1.62,4.97-2.18,7.61-1.53,2.64.66,4.84,2.46,6,4.92,3.29,6.96,10.36,11.45,18.02,11.45,5.74,0,11.21-2.5,15.01-6.85,3.19-3.65,8.69-4.15,12.48-1.13,3.57,2.85,7.86,4.35,12.41,4.35.72,0,1.54-.06,2.5-.18.75-.09,1.5-.09,2.25,0,.98.12,1.77.18,2.5.18,4.55,0,8.84-1.5,12.41-4.35,1.67-1.33,3.66-1.98,5.65-1.98ZM47.34,418.09v.04s0-.02,0-.04ZM47.37,417.92s0,.02,0,.03c0-.01,0-.02,0-.03Z"></path><g><path class="cls-2" d="M381.46,134.85c7.49.63,14.25,5.95,19.32,14.29,1.71-.44,3.48-.72,5.31-.84,4.47-4.52,9.65-7.15,15.22-7.15,1.28,0,2.52.18,3.76.45,1.23-.26,2.48-.45,3.76-.45,2.96,0,5.8.77,8.49,2.15,2.07-2.29,4.49-4.25,7.19-5.79-10.2-49.36-28.89-93.61-53.43-124.86-1.47-1.88-3.13-3.79-4.97-3.56-1.78.23-3.23,2.43-4.54,4.53-4.24,6.8-8.49,13.6-12.73,20.41,11.76,29.02,15.9,66.02,12.63,100.82Z"></path><path class="cls-1" d="M400.79,158.21c-3.11,0-6.08-1.61-7.75-4.36-3.69-6.07-8.07-9.61-12.33-9.97-2.41-.2-4.64-1.36-6.19-3.22s-2.3-4.26-2.07-6.66c3.24-34.54-1.14-69.74-12.01-96.57-1.09-2.69-.83-5.74.71-8.21,3.1-4.96,6.2-9.93,9.29-14.89l3.44-5.51c1.73-2.77,4.95-7.94,11.08-8.72,7.07-.91,11.4,4.6,13.25,6.95,25.03,31.86,44.63,77.54,55.18,128.62.79,3.84-.97,7.76-4.38,9.7-1.86,1.07-3.53,2.41-4.96,3.99-2.75,3.05-7.2,3.87-10.86,2-1.53-.78-2.96-1.16-4.37-1.16-.48,0-1.09.08-1.86.25-1.25.27-2.55.27-3.8,0-.77-.16-1.38-.25-1.86-.25-2.89,0-5.84,1.5-8.76,4.46-1.55,1.57-3.63,2.52-5.84,2.67-1.27.09-2.5.28-3.65.58-.75.19-1.51.29-2.27.29ZM391.09,128.09c4.71,2.07,9.09,5.46,12.93,10.01,5.32-3.96,11.21-6.03,17.29-6.03,1.21,0,2.45.1,3.76.3,1.31-.2,2.55-.3,3.76-.3,1.79,0,3.58.18,5.35.55-9.8-43.58-26.4-82.4-47.25-110.47l-1.1,1.77c-2.3,3.68-4.6,7.37-6.89,11.05,9.92,26.75,14.26,60.04,12.16,93.11Z"></path></g></g><g><path class="cls-1" d="M1003.1,764.93v-467.07h98.22v383.56h216.52v83.52h-314.75Z"></path><path class="cls-1" d="M1338.88,383.33v-85.8h95.56v85.8h-95.56ZM1340.19,764.6v-334.66h93.28v334.66h-93.28Z"></path><path class="cls-1" d="M1622.53,774.7c-41.76,0-72.31-11.46-91.66-34.41-19.36-22.93-29.03-55.49-29.03-97.68v-161.77h-54.16v-50.9h32.61c14.35,0,24.37-3.8,30.01-11.4s8.47-18.57,8.47-32.94v-60.34h75.05v104.68h101.42v50.9h-101.42v167.63c0,14.58,1.74,26.08,5.21,34.46,3.47,8.36,8.36,14.22,14.65,17.58,6.32,3.36,13.73,5.05,22.2,5.05,14.57,0,25.51-6.29,32.78-18.88,7.27-12.62,11.67-28.94,13.19-48.95l63.28,17.31c-1.09,13.89-3.96,27.87-8.63,41.89-4.67,14.04-11.69,26.94-21.06,38.69-9.33,11.72-21.63,21.16-36.85,28.33-15.19,7.16-33.89,10.74-56.06,10.74Z"></path><path class="cls-1" d="M1905.47,774.7c-35.03,0-65.31-6.95-90.84-20.84-25.55-13.92-45.18-34.09-58.88-60.51-13.68-26.4-20.51-58.42-20.51-96.05s6.67-70.29,20.02-96.7c13.38-26.44,32.57-46.51,57.58-60.18,24.99-13.7,54.78-20.57,89.38-20.57,29.55,0,55.42,5.83,77.6,17.47,22.17,11.61,39.56,27.87,52.15,48.73,12.62,20.88,19.5,45.35,20.62,73.42l-75.38,14.33-2.93-1.3c-1.52-27.81-8-49.07-19.43-63.76-11.4-14.68-28.19-22.03-50.36-22.03-23.92,0-42.19,9.69-54.81,29.03-12.59,19.36-18.88,46.22-18.88,80.59,0,26.74,3.15,48.27,9.44,64.58,6.29,16.32,15.3,28.16,27.02,35.54,11.75,7.38,25.79,11.07,42.11,11.07,19.13,0,34.89-5.37,47.27-16.12,12.4-10.77,21.44-24.87,27.08-42.27l1.95-.33,67.89,25.45c-5.9,18.71-15.17,35.68-27.78,50.9-12.59,15.19-28.84,27.27-48.73,36.2-19.9,8.9-43.77,13.35-71.58,13.35Z"></path><path class="cls-1" d="M2081.08,764.6v-471.63h92.96v199.59c9.58-22.6,24.43-40.37,44.55-53.29,20.11-12.94,43.97-19.43,71.58-19.43,18.69,0,34.73,2.74,48.08,8.19,13.38,5.43,24.53,12.94,33.43,22.52,8.93,9.55,16.01,20.49,21.22,32.78,5.21,12.26,8.9,25.37,11.07,39.29,2.2,13.89,3.31,27.81,3.31,41.73v200.24h-93.28v-190.48c0-10.88-.81-21.38-2.44-31.47s-4.59-19.16-8.85-27.19c-4.23-8.06-10.34-14.43-18.29-19.1-7.92-4.69-18.29-7.05-31.09-7.05-14.58,0-27.87,4.64-39.83,13.89-11.94,9.23-21.52,22.06-28.71,38.48-7.16,16.43-10.74,35.3-10.74,56.6v166.33h-92.96Z"></path><path class="cls-1" d="M2456.33,383.33v-85.8h95.56v85.8h-95.56ZM2457.63,764.6v-334.66h93.28v334.66h-93.28Z"></path><path class="cls-1" d="M2860.47,774.7c-42.41,0-76.92-8.9-103.54-26.7-26.63-17.83-42.44-44.8-47.43-80.91l72.07-16.99c3.26,20.01,11.34,35.46,24.26,46.34,12.94,10.85,31.49,16.28,55.62,16.28,21.95,0,38.04-3.74,48.24-11.23,10.23-7.49,15.36-17.54,15.36-30.17,0-7.16-2.44-13.51-7.33-19.05-4.88-5.56-13.38-10.8-25.45-15.68-12.05-4.88-28.73-9.94-50.03-15.19-10.46-2.6-21.46-5.54-32.99-8.79-11.5-3.26-22.66-7.33-33.43-12.21-10.74-4.88-20.49-10.96-29.2-18.23-8.68-7.3-15.57-16.28-20.68-26.92-5.1-10.66-7.65-23.4-7.65-38.2,0-31.07,12.66-55.04,37.99-71.9,25.32-16.85,60.7-25.29,106.15-25.29,38.92,0,70.18,8.44,93.77,25.29,23.58,16.86,39.74,41.92,48.46,75.16l-73.04,15.36c-4.38-19.35-12.02-33.32-22.9-41.89-10.85-8.6-26.94-12.92-48.24-12.92-18.02,0-31.5,3.28-40.43,9.82-8.9,6.51-13.35,15.41-13.35,26.7,0,8.94,2.77,16.12,8.3,21.54,5.54,5.43,13.95,10.12,25.23,14.06,11.31,3.91,25.79,8.03,43.41,12.37,30.67,6.95,55.68,15.11,75,24.47,19.35,9.33,33.59,20.38,42.71,33.1,9.14,12.7,13.73,27.87,13.73,45.48,0,21.96-6,40.89-17.96,56.76-11.94,15.89-29.39,28.11-52.31,36.68-22.94,8.57-51.05,12.86-84.33,12.86Z"></path><path class="cls-1" d="M3195.63,774.7c-35.68,0-66.45-7.16-92.31-21.49-25.87-14.35-45.83-34.8-59.86-61.32-14-26.55-21-58.08-21-94.59s7-68.06,21-94.59c14.03-26.51,34.04-46.95,60.02-61.32,25.97-14.35,56.68-21.54,92.14-21.54s66.11,7.19,91.98,21.54c25.86,14.37,45.86,34.76,59.96,61.16,14.14,26.41,21.22,57.89,21.22,94.42s-7.03,68.09-21.06,94.75c-14,26.63-33.94,47.13-59.8,61.48-25.87,14.33-56.64,21.49-92.31,21.49ZM3195.63,707.52c23.69,0,42.49-8.74,56.38-26.21,13.92-17.5,20.89-45.61,20.89-84.33s-6.92-66.49-20.73-84c-13.78-17.5-32.64-26.27-56.55-26.27s-42.84,8.82-56.76,26.43c-13.89,17.62-20.84,45.68-20.84,84.17s7,66.5,21,84c14.03,17.47,32.9,26.21,56.6,26.21Z"></path><path class="cls-1" d="M3397.33,764.6v-471.63h92.96v471.63h-92.96Z"></path><path class="cls-1" d="M3661.07,775.02c-18.71,0-34.81-2.71-48.3-8.14-13.46-5.43-24.66-12.86-33.59-22.3-8.9-9.47-15.95-20.4-21.16-32.78-5.21-12.4-8.93-25.57-11.12-39.51-2.17-13.92-3.26-27.95-3.26-42.06v-200.3h93.28v191.83c0,10.64.81,20.97,2.44,30.99,1.63,9.99,4.56,18.97,8.79,26.92,4.26,7.92,10.36,14.22,18.29,18.88,7.95,4.67,18.23,7,30.82,7,13.7,0,26.59-4.4,38.64-13.19,12.07-8.82,21.87-21.65,29.36-38.48,7.52-16.85,11.29-37.35,11.29-61.48v-162.47h92.96v334.66h-64.9l-16.01-77.93c-6.95,18.67-17.01,34.65-30.17,47.92-13.17,13.28-28.14,23.33-44.88,30.17-16.71,6.84-34.22,10.26-52.48,10.26Z"></path><path class="cls-1" d="M4057.21,774.7c-41.76,0-72.31-11.46-91.66-34.41-19.36-22.93-29.03-55.49-29.03-97.68v-161.77h-54.16v-50.9h32.61c14.35,0,24.37-3.8,30.01-11.4s8.47-18.57,8.47-32.94v-60.34h75.05v104.68h101.42v50.9h-101.42v167.63c0,14.58,1.74,26.08,5.21,34.46,3.47,8.36,8.36,14.22,14.65,17.58,6.32,3.36,13.73,5.05,22.2,5.05,14.57,0,25.51-6.29,32.78-18.88,7.27-12.62,11.67-28.94,13.19-48.95l63.28,17.31c-1.09,13.89-3.96,27.87-8.63,41.89-4.67,14.04-11.69,26.94-21.06,38.69-9.33,11.72-21.63,21.16-36.85,28.33-15.19,7.16-33.89,10.74-56.06,10.74Z"></path><path class="cls-1" d="M4194.98,383.33v-85.8h95.56v85.8h-95.56ZM4196.28,764.6v-334.66h93.28v334.66h-93.28Z"></path><path class="cls-1" d="M4490.03,774.7c-35.68,0-66.45-7.16-92.31-21.49-25.87-14.35-45.83-34.8-59.86-61.32-14-26.55-21-58.08-21-94.59s7-68.06,21-94.59c14.03-26.51,34.04-46.95,60.02-61.32,25.97-14.35,56.68-21.54,92.14-21.54s66.11,7.19,91.98,21.54c25.86,14.37,45.86,34.76,59.96,61.16,14.14,26.41,21.22,57.89,21.22,94.42s-7.03,68.09-21.06,94.75c-14,26.63-33.94,47.13-59.8,61.48-25.87,14.33-56.64,21.49-92.31,21.49ZM4490.03,707.52c23.69,0,42.49-8.74,56.38-26.21,13.92-17.5,20.89-45.61,20.89-84.33s-6.92-66.49-20.73-84c-13.78-17.5-32.64-26.27-56.55-26.27s-42.84,8.82-56.76,26.43c-13.89,17.62-20.84,45.68-20.84,84.17s7,66.5,21,84c14.03,17.47,32.9,26.21,56.6,26.21Z"></path><path class="cls-1" d="M4689.78,764.6v-334.66h65.23l16.01,77.98c7.16-19.13,17.2-35.22,30.12-48.24,12.94-13.05,27.74-22.95,44.39-29.68,16.63-6.76,33.98-10.15,52.04-10.15,23.47,0,42.93,4.15,58.34,12.43,15.44,8.25,27.51,19.4,36.2,33.43,8.71,14,14.87,29.71,18.45,47.1,3.61,17.41,5.43,35.25,5.43,53.51v198.29h-93.28v-188.85c0-11.72-.87-22.74-2.6-33.05-1.74-10.34-4.8-19.54-9.17-27.57-4.34-8.06-10.5-14.38-18.45-18.94-7.92-4.59-18.18-6.89-30.77-6.89-13.72,0-26.56,4.48-38.53,13.4-11.94,8.9-21.63,21.63-29.03,38.15-7.38,16.54-11.07,36.33-11.07,59.37v164.37h-93.28Z"></path><path class="cls-1" d="M5193.53,774.7c-42.41,0-76.92-8.9-103.54-26.7-26.63-17.83-42.44-44.8-47.43-80.91l72.07-16.99c3.26,20.01,11.34,35.46,24.26,46.34,12.94,10.85,31.49,16.28,55.62,16.28,21.95,0,38.04-3.74,48.24-11.23,10.23-7.49,15.36-17.54,15.36-30.17,0-7.16-2.44-13.51-7.33-19.05-4.88-5.56-13.38-10.8-25.45-15.68-12.05-4.88-28.73-9.94-50.03-15.19-10.46-2.6-21.46-5.54-32.99-8.79-11.5-3.26-22.66-7.33-33.43-12.21-10.74-4.88-20.49-10.96-29.2-18.23-8.68-7.3-15.57-16.28-20.68-26.92-5.1-10.66-7.65-23.4-7.65-38.2,0-31.07,12.66-55.04,37.99-71.9,25.32-16.85,60.7-25.29,106.15-25.29,38.92,0,70.18,8.44,93.77,25.29,23.58,16.86,39.74,41.92,48.46,75.16l-73.04,15.36c-4.38-19.35-12.02-33.32-22.9-41.89-10.85-8.6-26.94-12.92-48.24-12.92-18.02,0-31.5,3.28-40.43,9.82-8.9,6.51-13.35,15.41-13.35,26.7,0,8.94,2.77,16.12,8.3,21.54,5.54,5.43,13.95,10.12,25.23,14.06,11.31,3.91,25.79,8.03,43.41,12.37,30.67,6.95,55.68,15.11,75,24.47,19.35,9.33,33.59,20.38,42.71,33.1,9.14,12.7,13.73,27.87,13.73,45.48,0,21.96-6,40.89-17.96,56.76-11.94,15.89-29.39,28.11-52.31,36.68-22.94,8.57-51.05,12.86-84.33,12.86Z"></path></g></g></g></svg>